<?xml version="1.0" encoding="UTF-8"?>
<svg version="1.0" width="544" height="476" xmlns="http://www.w3.org/2000/svg">
 <g stroke="#000" fill="none">
  <path stroke-width="1.1" d="M141.0,352.0L76.0,309.0M141.0,95.0L76.0,138.0M468.0,138.0L403.0,209.0M337.0,52.0L272.0,124.0M337.0,52.0L272.0,95.0M403.0,152.0L337.0,167.0M272.0,409.0L207.0,366.0M272.0,381.0L207.0,452.0M403.0,381.0L337.0,338.0M403.0,381.0L337.0,281.0M272.0,38.0L207.0,138.0M337.0,81.0L272.0,67.0M403.0,409.0L337.0,424.0M337.0,424.0L272.0,409.0M207.0,110.0L141.0,67.0M141.0,238.0L76.0,224.0M468.0,281.0L403.0,295.0M468.0,281.0L403.0,267.0M141.0,209.0L76.0,309.0M141.0,209.0L76.0,252.0M272.0,95.0L207.0,52.0M403.0,67.0L337.0,110.0M403.0,409.0L337.0,452.0M337.0,452.0L272.0,466.0M207.0,81.0L141.0,67.0M141.0,238.0L76.0,309.0M207.0,395.0L141.0,352.0M468.0,252.0L403.0,152.0M403.0,324.0L337.0,338.0M141.0,209.0L76.0,195.0M403.0,95.0L337.0,138.0M141.0,238.0L76.0,195.0M141.0,381.0L76.0,281.0M207.0,138.0L141.0,95.0M468.0,138.0L403.0,152.0M141.0,181.0L76.0,252.0M272.0,409.0L207.0,424.0M468.0,167.0L403.0,238.0M534.0,238.0L468.0,138.0M468.0,281.0L403.0,238.0M207.0,138.0L141.0,67.0M403.0,409.0L337.0,395.0M337.0,395.0L272.0,381.0M141.0,124.0L76.0,224.0M403.0,95.0L337.0,110.0M403.0,124.0L337.0,110.0M272.0,381.0L207.0,424.0M207.0,424.0L141.0,352.0M207.0,52.0L141.0,124.0M468.0,224.0L403.0,267.0M272.0,10.0L207.0,81.0M468.0,309.0L403.0,324.0M468.0,252.0L403.0,324.0M272.0,152.0L207.0,52.0M207.0,110.0L141.0,95.0M403.0,381.0L337.0,309.0M272.0,95.0L207.0,24.0M207.0,452.0L141.0,409.0M534.0,238.0L468.0,309.0M468.0,281.0L403.0,209.0M141.0,267.0L76.0,224.0M468.0,224.0L403.0,181.0M468.0,167.0L403.0,152.0M141.0,181.0L76.0,138.0M272.0,438.0L207.0,452.0M141.0,409.0L76.0,338.0M141.0,352.0L76.0,281.0M534.0,238.0L468.0,224.0M76.0,338.0L10.0,238.0M141.0,324.0L76.0,338.0M403.0,381.0L337.0,452.0M207.0,366.0L141.0,352.0M141.0,409.0L76.0,309.0M141.0,267.0L76.0,167.0M403.0,95.0L337.0,195.0M207.0,24.0L141.0,124.0M337.0,424.0L272.0,381.0M207.0,338.0L141.0,381.0M337.0,424.0L272.0,352.0M468.0,309.0L403.0,352.0M403.0,95.0L337.0,24.0M272.0,466.0L207.0,395.0M141.0,352.0L76.0,252.0M337.0,81.0L272.0,95.0M207.0,395.0L141.0,324.0M468.0,309.0L403.0,238.0M207.0,81.0L141.0,124.0M272.0,352.0L207.0,424.0M337.0,338.0L272.0,438.0M337.0,452.0L272.0,409.0M468.0,138.0L403.0,124.0M468.0,338.0L403.0,409.0M468.0,338.0L403.0,267.0M76.0,224.0L10.0,238.0M337.0,110.0L272.0,67.0M207.0,309.0L141.0,324.0M207.0,52.0L141.0,67.0M76.0,167.0L10.0,238.0M403.0,352.0L337.0,424.0M141.0,324.0L76.0,224.0M468.0,338.0L403.0,295.0M403.0,124.0L337.0,81.0M403.0,352.0L337.0,395.0M337.0,424.0L272.0,324.0M141.0,267.0L76.0,338.0M337.0,366.0L272.0,466.0M141.0,295.0L76.0,252.0M272.0,10.0L207.0,110.0M272.0,466.0L207.0,366.0M272.0,67.0L207.0,81.0M468.0,167.0L403.0,124.0M468.0,224.0L403.0,152.0M403.0,352.0L337.0,366.0M141.0,295.0L76.0,281.0M272.0,438.0L207.0,338.0M272.0,409.0L207.0,452.0M272.0,438.0L207.0,366.0M141.0,67.0L76.0,167.0M403.0,352.0L337.0,452.0M468.0,309.0L403.0,295.0M403.0,124.0L337.0,52.0M141.0,295.0L76.0,309.0M468.0,195.0L403.0,267.0M207.0,167.0L141.0,152.0M468.0,167.0L403.0,181.0M272.0,409.0L207.0,395.0M337.0,24.0L272.0,10.0M141.0,181.0L76.0,281.0M468.0,224.0L403.0,295.0M468.0,252.0L403.0,352.0M468.0,338.0L403.0,381.0M337.0,52.0L272.0,152.0M141.0,238.0L76.0,138.0M403.0,152.0L337.0,81.0M207.0,366.0L141.0,381.0M337.0,81.0L272.0,10.0M207.0,81.0L141.0,152.0M337.0,452.0L272.0,438.0M468.0,195.0L403.0,95.0M403.0,381.0L337.0,366.0M141.0,295.0L76.0,195.0M403.0,67.0L337.0,167.0M207.0,167.0L141.0,67.0M468.0,281.0L403.0,181.0M207.0,452.0L141.0,352.0M534.0,238.0L468.0,281.0M141.0,295.0L76.0,224.0M403.0,152.0L337.0,52.0M468.0,195.0L403.0,124.0M141.0,267.0L76.0,281.0M141.0,238.0L76.0,252.0M272.0,67.0L207.0,24.0M141.0,209.0L76.0,167.0M468.0,138.0L403.0,95.0M272.0,324.0L207.0,424.0M403.0,67.0L337.0,52.0M207.0,81.0L141.0,95.0M337.0,24.0L272.0,67.0M468.0,167.0L403.0,267.0M207.0,52.0L141.0,152.0M337.0,424.0L272.0,466.0M207.0,167.0L141.0,95.0M403.0,67.0L337.0,24.0M141.0,67.0L76.0,138.0M76.0,195.0L10.0,238.0M141.0,95.0L76.0,195.0M141.0,124.0L76.0,167.0M141.0,124.0L76.0,195.0M207.0,24.0L141.0,67.0M207.0,24.0L141.0,95.0M468.0,138.0L403.0,238.0M141.0,124.0L76.0,138.0M76.0,281.0L10.0,238.0M207.0,338.0L141.0,409.0M141.0,152.0L76.0,224.0M141.0,181.0L76.0,195.0M141.0,181.0L76.0,224.0M207.0,110.0L141.0,124.0M272.0,10.0L207.0,24.0M272.0,10.0L207.0,52.0M337.0,395.0L272.0,466.0M468.0,252.0L403.0,238.0M141.0,267.0L76.0,309.0M76.0,252.0L10.0,238.0M141.0,152.0L76.0,138.0M141.0,181.0L76.0,167.0M272.0,124.0L207.0,24.0M468.0,309.0L403.0,267.0M337.0,24.0L272.0,95.0M141.0,152.0L76.0,167.0M468.0,309.0L403.0,209.0M468.0,338.0L403.0,352.0M468.0,138.0L403.0,67.0M468.0,252.0L403.0,181.0M468.0,195.0L403.0,209.0M337.0,52.0L272.0,10.0M207.0,309.0L141.0,409.0M76.0,138.0L10.0,238.0M141.0,238.0L76.0,167.0M337.0,24.0L272.0,124.0M468.0,224.0L403.0,124.0M468.0,167.0L403.0,67.0M207.0,452.0L141.0,381.0M403.0,95.0L337.0,81.0M337.0,452.0L272.0,381.0M272.0,67.0L207.0,52.0M76.0,309.0L10.0,238.0M403.0,67.0L337.0,138.0M272.0,466.0L207.0,424.0M337.0,366.0L272.0,409.0M207.0,366.0L141.0,409.0M468.0,224.0L403.0,324.0M207.0,424.0L141.0,324.0M272.0,466.0L207.0,452.0M468.0,167.0L403.0,209.0M272.0,95.0L207.0,81.0M468.0,195.0L403.0,295.0M337.0,110.0L272.0,10.0M207.0,281.0L141.0,381.0M141.0,352.0L76.0,338.0M468.0,252.0L403.0,209.0M468.0,195.0L403.0,181.0M207.0,395.0L141.0,409.0M207.0,338.0L141.0,324.0M403.0,409.0L337.0,338.0M534.0,238.0L468.0,338.0M141.0,209.0L76.0,138.0M403.0,95.0L337.0,167.0M272.0,381.0L207.0,395.0M141.0,295.0L76.0,338.0M468.0,224.0L403.0,238.0M468.0,281.0L403.0,381.0M337.0,395.0L272.0,409.0M272.0,124.0L207.0,52.0M403.0,67.0L337.0,81.0M141.0,381.0L76.0,338.0M468.0,281.0L403.0,352.0M141.0,324.0L76.0,309.0M403.0,324.0L337.0,309.0M272.0,38.0L207.0,110.0M403.0,381.0L337.0,395.0M403.0,124.0L337.0,24.0M337.0,81.0L272.0,38.0M141.0,324.0L76.0,252.0M337.0,452.0L272.0,352.0M141.0,152.0L76.0,252.0M337.0,110.0L272.0,38.0M272.0,38.0L207.0,81.0M141.0,209.0L76.0,281.0M337.0,138.0L272.0,38.0M272.0,38.0L207.0,24.0M272.0,438.0L207.0,395.0M534.0,238.0L468.0,252.0M207.0,424.0L141.0,409.0M468.0,338.0L403.0,238.0M403.0,409.0L337.0,309.0M207.0,195.0L141.0,95.0M141.0,238.0L76.0,338.0M207.0,395.0L141.0,381.0M468.0,138.0L403.0,181.0M207.0,309.0L141.0,381.0M403.0,152.0L337.0,138.0M403.0,324.0L337.0,395.0M403.0,409.0L337.0,366.0M403.0,324.0L337.0,424.0M468.0,309.0L403.0,409.0M468.0,195.0L403.0,238.0M534.0,238.0L468.0,167.0M337.0,395.0L272.0,438.0M534.0,238.0L468.0,195.0M141.0,267.0L76.0,195.0M272.0,352.0L207.0,452.0M141.0,238.0L76.0,281.0M337.0,24.0L272.0,38.0M337.0,366.0L272.0,438.0M468.0,338.0L403.0,324.0M468.0,252.0L403.0,295.0M207.0,138.0L141.0,152.0M272.0,67.0L207.0,110.0M337.0,52.0L272.0,67.0"/>
  <path stroke-width="1.15" d="M403.0,267.0L337.0,338.0M207.0,138.0L141.0,124.0M272.0,381.0L207.0,338.0M207.0,224.0L141.0,324.0M272.0,324.0L207.0,366.0M207.0,252.0L141.0,324.0M272.0,409.0L207.0,338.0M403.0,324.0L337.0,366.0M337.0,366.0L272.0,324.0M403.0,124.0L337.0,224.0M207.0,281.0L141.0,352.0M403.0,124.0L337.0,167.0M403.0,295.0L337.0,252.0M403.0,352.0L337.0,281.0M207.0,252.0L141.0,295.0M272.0,181.0L207.0,81.0M337.0,395.0L272.0,324.0M403.0,209.0L337.0,224.0M403.0,181.0L337.0,224.0M337.0,138.0L272.0,67.0M272.0,152.0L207.0,138.0M337.0,395.0L272.0,352.0M207.0,81.0L141.0,181.0M403.0,152.0L337.0,252.0M403.0,295.0L337.0,338.0M403.0,324.0L337.0,224.0M403.0,352.0L337.0,309.0M207.0,224.0L141.0,152.0M272.0,324.0L207.0,338.0M337.0,138.0L272.0,95.0M337.0,366.0L272.0,352.0M207.0,366.0L141.0,324.0M337.0,366.0L272.0,381.0M403.0,352.0L337.0,338.0M272.0,152.0L207.0,81.0M403.0,209.0L337.0,138.0M337.0,110.0L272.0,124.0M272.0,295.0L207.0,395.0M403.0,295.0L337.0,395.0M337.0,167.0L272.0,67.0M207.0,110.0L141.0,181.0M403.0,181.0L337.0,167.0M403.0,209.0L337.0,110.0M337.0,110.0L272.0,152.0M403.0,124.0L337.0,138.0M207.0,309.0L141.0,267.0M403.0,181.0L337.0,138.0M403.0,152.0L337.0,224.0M207.0,366.0L141.0,295.0M207.0,138.0L141.0,209.0M403.0,181.0L337.0,195.0M207.0,338.0L141.0,267.0M272.0,409.0L207.0,309.0M337.0,395.0L272.0,295.0M207.0,195.0L141.0,181.0M403.0,267.0L337.0,309.0M207.0,224.0L141.0,181.0M272.0,95.0L207.0,167.0M403.0,152.0L337.0,195.0M207.0,224.0L141.0,267.0M403.0,295.0L337.0,281.0M337.0,338.0L272.0,409.0M207.0,366.0L141.0,267.0M207.0,138.0L141.0,181.0M207.0,110.0L141.0,209.0M337.0,338.0L272.0,381.0M272.0,124.0L207.0,110.0M403.0,267.0L337.0,252.0M207.0,252.0L141.0,209.0M272.0,152.0L207.0,110.0M207.0,110.0L141.0,152.0M207.0,167.0L141.0,209.0M403.0,152.0L337.0,110.0M272.0,124.0L207.0,81.0M272.0,95.0L207.0,138.0M403.0,267.0L337.0,195.0M272.0,381.0L207.0,366.0M207.0,309.0L141.0,352.0M207.0,252.0L141.0,352.0M272.0,67.0L207.0,138.0M207.0,195.0L141.0,152.0M272.0,381.0L207.0,309.0M207.0,195.0L141.0,124.0M207.0,195.0L141.0,267.0M337.0,110.0L272.0,95.0M207.0,309.0L141.0,295.0M403.0,181.0L337.0,110.0M337.0,338.0L272.0,324.0M207.0,224.0L141.0,209.0M207.0,281.0L141.0,209.0M403.0,181.0L337.0,81.0M403.0,324.0L337.0,252.0M403.0,295.0L337.0,366.0M403.0,267.0L337.0,224.0M403.0,324.0L337.0,281.0M403.0,124.0L337.0,195.0M207.0,338.0L141.0,295.0M207.0,252.0L141.0,267.0M403.0,267.0L337.0,366.0M337.0,167.0L272.0,95.0M403.0,295.0L337.0,309.0M337.0,138.0L272.0,152.0M272.0,324.0L207.0,395.0M403.0,209.0L337.0,167.0M272.0,67.0L207.0,167.0M207.0,167.0L141.0,124.0M272.0,95.0L207.0,110.0M403.0,209.0L337.0,281.0M207.0,252.0L141.0,152.0M337.0,81.0L272.0,124.0M337.0,81.0L272.0,181.0M337.0,309.0L272.0,381.0M207.0,281.0L141.0,324.0M403.0,209.0L337.0,252.0M337.0,309.0L272.0,409.0M403.0,352.0L337.0,252.0M207.0,224.0L141.0,124.0M272.0,352.0L207.0,366.0M272.0,352.0L207.0,395.0M207.0,167.0L141.0,181.0M337.0,81.0L272.0,152.0M207.0,395.0L141.0,295.0M207.0,338.0L141.0,352.0M207.0,281.0L141.0,295.0"/>
  <path stroke-width="1.2" d="M337.0,366.0L272.0,267.0M272.0,324.0L207.0,281.0M207.0,224.0L141.0,295.0M403.0,181.0L337.0,252.0M272.0,209.0L207.0,224.0M337.0,366.0L272.0,295.0M337.0,281.0L272.0,381.0M207.0,195.0L141.0,295.0M403.0,238.0L337.0,252.0M207.0,224.0L141.0,238.0M272.0,267.0L207.0,252.0M272.0,152.0L207.0,167.0M207.0,252.0L141.0,181.0M272.0,295.0L207.0,281.0M403.0,238.0L337.0,167.0M272.0,181.0L207.0,138.0M337.0,252.0L272.0,267.0M403.0,238.0L337.0,281.0M337.0,252.0L272.0,324.0M207.0,281.0L141.0,267.0M337.0,110.0L272.0,181.0M272.0,181.0L207.0,195.0M207.0,138.0L141.0,238.0M403.0,238.0L337.0,138.0M272.0,267.0L207.0,309.0M272.0,95.0L207.0,195.0M403.0,295.0L337.0,195.0M337.0,224.0L272.0,152.0M272.0,209.0L207.0,138.0M403.0,238.0L337.0,224.0M272.0,324.0L207.0,252.0M403.0,238.0L337.0,195.0M337.0,309.0L272.0,352.0M272.0,352.0L207.0,338.0M272.0,295.0L207.0,338.0M403.0,209.0L337.0,309.0M207.0,167.0L141.0,267.0M403.0,209.0L337.0,195.0M207.0,252.0L141.0,238.0M403.0,238.0L337.0,338.0M337.0,195.0L272.0,95.0M207.0,195.0L141.0,238.0M337.0,138.0L272.0,124.0M337.0,110.0L272.0,209.0M337.0,138.0L272.0,209.0M337.0,281.0L272.0,324.0M272.0,181.0L207.0,110.0M272.0,295.0L207.0,366.0M337.0,224.0L272.0,209.0M207.0,309.0L141.0,209.0M207.0,195.0L141.0,209.0M337.0,309.0L272.0,267.0M207.0,338.0L141.0,238.0M272.0,152.0L207.0,224.0M272.0,381.0L207.0,281.0M337.0,167.0L272.0,209.0M337.0,138.0L272.0,181.0M337.0,338.0L272.0,352.0M272.0,352.0L207.0,309.0M337.0,195.0L272.0,181.0M403.0,267.0L337.0,281.0M337.0,195.0L272.0,152.0M337.0,338.0L272.0,295.0M403.0,267.0L337.0,167.0M272.0,124.0L207.0,138.0M272.0,209.0L207.0,110.0M337.0,167.0L272.0,152.0M337.0,309.0L272.0,324.0M272.0,209.0L207.0,167.0M207.0,281.0L141.0,238.0M403.0,295.0L337.0,224.0M337.0,338.0L272.0,267.0M337.0,167.0L272.0,124.0M207.0,281.0L141.0,181.0M207.0,167.0L141.0,238.0M337.0,281.0L272.0,295.0M403.0,181.0L337.0,281.0M272.0,124.0L207.0,167.0M272.0,267.0L207.0,338.0M272.0,324.0L207.0,309.0M403.0,238.0L337.0,309.0M272.0,152.0L207.0,195.0M207.0,309.0L141.0,238.0M272.0,267.0L207.0,366.0"/>
  <path stroke-width="1.25" d="M337.0,252.0L272.0,352.0M272.0,181.0L207.0,252.0M272.0,209.0L207.0,309.0M272.0,267.0L207.0,281.0M272.0,295.0L207.0,224.0M337.0,224.0L272.0,238.0M272.0,152.0L207.0,252.0M272.0,267.0L207.0,224.0M337.0,252.0L272.0,209.0M337.0,281.0L272.0,238.0M272.0,267.0L207.0,195.0M337.0,195.0L272.0,238.0M272.0,209.0L207.0,252.0M272.0,209.0L207.0,281.0M272.0,324.0L207.0,224.0M337.0,195.0L272.0,124.0M337.0,252.0L272.0,238.0M272.0,352.0L207.0,252.0M272.0,352.0L207.0,281.0M337.0,167.0L272.0,238.0M337.0,309.0L272.0,295.0M272.0,295.0L207.0,252.0M272.0,238.0L207.0,167.0M337.0,338.0L272.0,238.0M337.0,224.0L272.0,295.0M272.0,238.0L207.0,195.0M272.0,209.0L207.0,195.0M337.0,224.0L272.0,124.0M337.0,252.0L272.0,295.0M337.0,281.0L272.0,352.0M337.0,309.0L272.0,238.0M337.0,195.0L272.0,209.0M272.0,238.0L207.0,309.0M272.0,238.0L207.0,138.0M272.0,238.0L207.0,338.0M337.0,224.0L272.0,324.0M337.0,252.0L272.0,152.0M337.0,309.0L272.0,209.0M337.0,138.0L272.0,238.0M337.0,252.0L272.0,181.0M337.0,167.0L272.0,181.0M337.0,281.0L272.0,209.0M272.0,295.0L207.0,309.0M337.0,224.0L272.0,267.0M337.0,281.0L272.0,267.0M272.0,238.0L207.0,224.0M337.0,195.0L272.0,267.0M272.0,181.0L207.0,167.0M272.0,267.0L207.0,167.0M272.0,124.0L207.0,195.0M272.0,238.0L207.0,252.0M272.0,238.0L207.0,281.0M337.0,167.0L272.0,267.0M272.0,181.0L207.0,224.0M272.0,124.0L207.0,224.0M337.0,224.0L272.0,181.0"/>
  <path stroke-width="1.3" d="M272.0,181.0L207.0,281.0M337.0,281.0L272.0,181.0M337.0,195.0L272.0,295.0M272.0,295.0L207.0,195.0"/>
  <circle onClick = "toggleCircleColor(this.id)" id="011111111" cx="534" cy="238" r="5" style="fill: rgb(0, 204, 102);"/>
  <circle onClick = "toggleCircleColor(this.id)" id="001111111" cx="468" cy="338" r="5" style="fill: rgb(0, 204, 102);"/>
  <circle onClick = "toggleCircleColor(this.id)" id="010111111" cx="468" cy="309" r="5" style="fill: rgb(0, 204, 102);"/>
  <circle onClick = "toggleCircleColor(this.id)" id="000111111" cx="403" cy="409" r="5" style="fill: rgb(0, 204, 102);"/>
  <circle onClick = "toggleCircleColor(this.id)" id="011011111" cx="468" cy="281" r="5" style="fill: rgb(0, 204, 102);"/>
  <circle onClick = "toggleCircleColor(this.id)" id="001011111" cx="403" cy="381" r="5" style="fill: rgb(0, 204, 102);"/>
  <circle onClick = "toggleCircleColor(this.id)" id="010011111" cx="398" cy="352" r="5" style="fill: rgb(0, 204, 102);"/>
  <circle onClick = "toggleCircleColor(this.id)" id="001101111" cx="408" cy="352" r="5" style="fill: rgb(0, 204, 102);"/>
  <circle onClick = "toggleCircleColor(this.id)" id="000011111" cx="337" cy="452" r="5" style="fill: rgb(0, 204, 102);"/>
  <circle onClick = "toggleCircleColor(this.id)" id="011101111" cx="468" cy="252" r="5" style="fill: rgb(0, 204, 102);"/>
  <circle onClick = "toggleCircleColor(this.id)" id="010101111" cx="398" cy="324" r="5" style="fill: rgb(0, 204, 102);"/>
  <circle onClick = "toggleCircleColor(this.id)" id="001110111" cx="408" cy="324" r="5" style="fill: rgb(0, 204, 102);"/>
  <circle onClick = "toggleCircleColor(this.id)" id="000101111" cx="337" cy="424" r="5" style="fill: rgb(0, 204, 102);"/>
  <circle onClick = "toggleCircleColor(this.id)" id="011001111" cx="393" cy="295" r="5" style="fill: rgb(0, 204, 102);"/>
  <circle onClick = "toggleCircleColor(this.id)" id="010110111" cx="403" cy="295" r="5" style="fill: rgb(0, 204, 102);"/>
  <circle onClick = "toggleCircleColor(this.id)" id="001111011" cx="413" cy="295" r="5" style="fill: rgb(0, 204, 102);"/>
  <circle onClick = "toggleCircleColor(this.id)" id="001001111" cx="332" cy="395" r="5" style="fill: rgb(0, 204, 102);"/>
  <circle onClick = "toggleCircleColor(this.id)" id="000110111" cx="342" cy="395" r="5" style="fill: rgb(0, 204, 102);"/>
  <circle onClick = "toggleCircleColor(this.id)" id="010001111" cx="327" cy="366" r="5" style="fill: rgb(0, 204, 102);"/>
  <circle onClick = "toggleCircleColor(this.id)" id="001010111" cx="337" cy="366" r="5" style="fill: rgb(0, 204, 102);"/>
  <circle onClick = "toggleCircleColor(this.id)" id="000111011" cx="347" cy="366" r="5" style="fill: rgb(0, 204, 102);"/>
  <circle onClick = "toggleCircleColor(this.id)" id="000001111" cx="272" cy="466" r="5" style="fill: rgb(0, 204, 102);"/>
  <circle onClick = "toggleCircleColor(this.id)" id="011110111" cx="468" cy="224" r="5" style="fill: rgb(0, 204, 102);"/>
  <circle onClick = "toggleCircleColor(this.id)" id="011010111" cx="393" cy="267" r="5" style="fill: rgb(0, 204, 102);"/>
  <circle onClick = "toggleCircleColor(this.id)" id="010111011" cx="403" cy="267" r="5" style="fill: rgb(0, 204, 102);"/>
  <circle onClick = "toggleCircleColor(this.id)" id="001111101" cx="413" cy="267" r="5" style="fill: rgb(0, 204, 102);"/>
  <circle onClick = "toggleCircleColor(this.id)" id="010010111" cx="322" cy="338" r="5" style="fill: rgb(0, 204, 102);"/>
  <circle onClick = "toggleCircleColor(this.id)" id="001100111" cx="332" cy="338" r="5" style="fill: rgb(0, 204, 102);"/>
  <circle onClick = "toggleCircleColor(this.id)" id="001011011" cx="342" cy="338" r="5" style="fill: rgb(0, 204, 102);"/>
  <circle onClick = "toggleCircleColor(this.id)" id="000111101" cx="352" cy="338" r="5" style="fill: rgb(0, 204, 102);"/>
  <circle onClick = "toggleCircleColor(this.id)" id="000010111" cx="272" cy="438" r="5" style="fill: rgb(0, 204, 102);"/>
  <circle onClick = "toggleCircleColor(this.id)" id="011100111" cx="388" cy="238" r="5" style="fill: rgb(0, 204, 102);"/>
  <circle onClick = "toggleCircleColor(this.id)" id="011011011" cx="398" cy="238" r="5" style="fill: rgb(0, 204, 102);"/>
  <circle onClick = "toggleCircleColor(this.id)" id="010111101" cx="408" cy="238" r="5" style="fill: rgb(0, 204, 102);"/>
  <circle onClick = "toggleCircleColor(this.id)" id="001111110" cx="418" cy="238" r="5" style="fill: rgb(0, 204, 102);"/>
  <circle onClick = "toggleCircleColor(this.id)" id="010100111" cx="317" cy="309" r="5" style="fill: rgb(0, 204, 102);"/>
  <circle onClick = "toggleCircleColor(this.id)" id="010011011" cx="327" cy="309" r="5" style="fill: rgb(0, 204, 102);"/>
  <circle onClick = "toggleCircleColor(this.id)" id="001101011" cx="337" cy="309" r="5" style="fill: rgb(0, 204, 102);"/>
  <circle onClick = "toggleCircleColor(this.id)" id="001011101" cx="347" cy="309" r="5" style="fill: rgb(0, 204, 102);"/>
  <circle onClick = "toggleCircleColor(this.id)" id="000111110" cx="357" cy="309" r="5" style="fill: rgb(0, 204, 102);"/>
  <circle onClick = "toggleCircleColor(this.id)" id="000100111" cx="267" cy="409" r="5" style="fill: rgb(0, 204, 102);"/>
  <circle onClick = "toggleCircleColor(this.id)" id="000011011" cx="277" cy="409" r="5" style="fill: rgb(0, 204, 102);"/>
  <circle onClick = "toggleCircleColor(this.id)" id="011000111" cx="312" cy="281" r="5" style="fill: rgb(0, 204, 102);"/>
  <circle onClick = "toggleCircleColor(this.id)" id="010101011" cx="322" cy="281" r="5" style="fill: rgb(0, 204, 102);"/>
  <circle onClick = "toggleCircleColor(this.id)" id="001110011" cx="332" cy="281" r="5" style="fill: rgb(0, 204, 102);"/>
  <circle onClick = "toggleCircleColor(this.id)" id="010011101" cx="342" cy="281" r="5" style="fill: rgb(0, 204, 102);"/>
  <circle onClick = "toggleCircleColor(this.id)" id="001101101" cx="352" cy="281" r="5" style="fill: rgb(0, 204, 102);"/>
  <circle onClick = "toggleCircleColor(this.id)" id="001011110" cx="362" cy="281" r="5" style="fill: rgb(0, 204, 102);"/>
  <circle onClick = "toggleCircleColor(this.id)" id="001000111" cx="262" cy="381" r="5" style="fill: rgb(0, 204, 102);"/>
  <circle onClick = "toggleCircleColor(this.id)" id="000101011" cx="272" cy="381" r="5" style="fill: rgb(0, 204, 102);"/>
  <circle onClick = "toggleCircleColor(this.id)" id="000011101" cx="282" cy="381" r="5" style="fill: rgb(0, 204, 102);"/>
  <circle onClick = "toggleCircleColor(this.id)" id="010000111" cx="252" cy="352" r="5" style="fill: rgb(0, 204, 102);"/>
  <circle onClick = "toggleCircleColor(this.id)" id="001001011" cx="262" cy="352" r="5" style="fill: rgb(0, 204, 102);"/>
  <circle onClick = "toggleCircleColor(this.id)" id="000110011" cx="272" cy="352" r="5" style="fill: rgb(0, 204, 102);"/>
  <circle onClick = "toggleCircleColor(this.id)" id="000101101" cx="282" cy="352" r="5" style="fill: rgb(0, 204, 102);"/>
  <circle onClick = "toggleCircleColor(this.id)" id="000011110" cx="292" cy="352" r="5" style="fill: rgb(0, 204, 102);"/>
  <circle onClick = "toggleCircleColor(this.id)" id="000000111" cx="207" cy="452" r="5" style="fill: rgb(0, 204, 102);"/>
  <circle onClick = "toggleCircleColor(this.id)" id="011111011" cx="468" cy="195" r="5" style="fill: rgb(0, 204, 102);"/>
  <circle onClick = "toggleCircleColor(this.id)" id="011101011" cx="393" cy="209" r="5" style="fill: rgb(0, 204, 102);"/>
  <circle onClick = "toggleCircleColor(this.id)" id="011011101" cx="403" cy="209" r="5" style="fill: rgb(0, 204, 102);"/>
  <circle onClick = "toggleCircleColor(this.id)" id="010111110" cx="413" cy="209" r="5" style="fill: rgb(0, 204, 102);"/>
  <circle onClick = "toggleCircleColor(this.id)" id="011001011" cx="312" cy="252" r="5" style="fill: rgb(0, 204, 102);"/>
  <circle onClick = "toggleCircleColor(this.id)" id="010110011" cx="322" cy="252" r="5" style="fill: rgb(0, 204, 102);"/>
  <circle onClick = "toggleCircleColor(this.id)" id="010101101" cx="332" cy="252" r="5" style="fill: rgb(0, 204, 102);"/>
  <circle onClick = "toggleCircleColor(this.id)" id="001110101" cx="342" cy="252" r="5" style="fill: rgb(0, 204, 102);"/>
  <circle onClick = "toggleCircleColor(this.id)" id="010011110" cx="352" cy="252" r="5" style="fill: rgb(0, 204, 102);"/>
  <circle onClick = "toggleCircleColor(this.id)" id="001101110" cx="362" cy="252" r="5" style="fill: rgb(0, 204, 102);"/>
  <circle onClick = "toggleCircleColor(this.id)" id="010001011" cx="252" cy="324" r="5" style="fill: rgb(0, 204, 102);"/>
  <circle onClick = "toggleCircleColor(this.id)" id="001010011" cx="262" cy="324" r="5" style="fill: rgb(0, 204, 102);"/>
  <circle onClick = "toggleCircleColor(this.id)" id="001001101" cx="272" cy="324" r="5" style="fill: rgb(0, 204, 102);"/>
  <circle onClick = "toggleCircleColor(this.id)" id="000110101" cx="282" cy="324" r="5" style="fill: rgb(0, 204, 102);"/>
  <circle onClick = "toggleCircleColor(this.id)" id="000101110" cx="292" cy="324" r="5" style="fill: rgb(0, 204, 102);"/>
  <circle onClick = "toggleCircleColor(this.id)" id="000001011" cx="207" cy="424" r="5" style="fill: rgb(0, 204, 102);"/>
  <circle onClick = "toggleCircleColor(this.id)" id="011110011" cx="393" cy="181" r="5" style="fill: rgb(0, 204, 102);"/>
  <circle onClick = "toggleCircleColor(this.id)" id="011101101" cx="403" cy="181" r="5" style="fill: rgb(0, 204, 102);"/>
  <circle onClick = "toggleCircleColor(this.id)" id="011011110" cx="413" cy="181" r="5" style="fill: rgb(0, 204, 102);"/>
  <circle onClick = "toggleCircleColor(this.id)" id="011010011" cx="312" cy="224" r="5" style="fill: rgb(0, 204, 102);"/>
  <circle onClick = "toggleCircleColor(this.id)" id="011001101" cx="322" cy="224" r="5" style="fill: rgb(0, 204, 102);"/>
  <circle onClick = "toggleCircleColor(this.id)" id="010110101" cx="332" cy="224" r="5" style="fill: rgb(0, 204, 102);"/>
  <circle onClick = "toggleCircleColor(this.id)" id="001111001" cx="342" cy="224" r="5" style="fill: rgb(0, 204, 102);"/>
  <circle onClick = "toggleCircleColor(this.id)" id="010101110" cx="352" cy="224" r="5" style="fill: rgb(0, 204, 102);"/>
  <circle onClick = "toggleCircleColor(this.id)" id="001110110" cx="362" cy="224" r="5" style="fill: rgb(0, 204, 102);"/>
  <circle onClick = "toggleCircleColor(this.id)" id="010010011" cx="242" cy="295" r="5" style="fill: rgb(0, 204, 102);"/>
  <circle onClick = "toggleCircleColor(this.id)" id="001100011" cx="252" cy="295" r="5" style="fill: rgb(0, 204, 102);"/>
  <circle onClick = "toggleCircleColor(this.id)" id="010001101" cx="262" cy="295" r="5" style="fill: rgb(0, 204, 102);"/>
  <circle onClick = "toggleCircleColor(this.id)" id="001010101" cx="272" cy="295" r="5" style="fill: rgb(0, 204, 102);"/>
  <circle onClick = "toggleCircleColor(this.id)" id="000111001" cx="282" cy="295" r="5" style="fill: rgb(0, 204, 102);"/>
  <circle onClick = "toggleCircleColor(this.id)" id="001001110" cx="292" cy="295" r="5" style="fill: rgb(0, 204, 102);"/>
  <circle onClick = "toggleCircleColor(this.id)" id="000110110" cx="302" cy="295" r="5" style="fill: rgb(0, 204, 102);"/>
  <circle onClick = "toggleCircleColor(this.id)" id="000010011" cx="202" cy="395" r="5" style="fill: rgb(0, 204, 102);"/>
  <circle onClick = "toggleCircleColor(this.id)" id="000001101" cx="212" cy="395" r="5" style="fill: rgb(0, 204, 102);"/>
  <circle onClick = "toggleCircleColor(this.id)" id="011100011" cx="312" cy="195" r="5" style="fill: rgb(0, 204, 102);"/>
  <circle onClick = "toggleCircleColor(this.id)" id="011010101" cx="322" cy="195" r="5" style="fill: rgb(0, 204, 102);"/>
  <circle onClick = "toggleCircleColor(this.id)" id="010111001" cx="332" cy="195" r="5" style="fill: rgb(0, 204, 102);"/>
  <circle onClick = "toggleCircleColor(this.id)" id="011001110" cx="342" cy="195" r="5" style="fill: rgb(0, 204, 102);"/>
  <circle onClick = "toggleCircleColor(this.id)" id="010110110" cx="352" cy="195" r="5" style="fill: rgb(0, 204, 102);"/>
  <circle onClick = "toggleCircleColor(this.id)" id="001111010" cx="362" cy="195" r="5" style="fill: rgb(0, 204, 102);"/>
  <circle onClick = "toggleCircleColor(this.id)" id="010100011" cx="242" cy="267" r="5" style="fill: rgb(0, 204, 102);"/>
  <circle onClick = "toggleCircleColor(this.id)" id="010010101" cx="252" cy="267" r="5" style="fill: rgb(0, 204, 102);"/>
  <circle onClick = "toggleCircleColor(this.id)" id="001100101" cx="262" cy="267" r="5" style="fill: rgb(0, 204, 102);"/>
  <circle onClick = "toggleCircleColor(this.id)" id="001011001" cx="272" cy="267" r="5" style="fill: rgb(0, 204, 102);"/>
  <circle onClick = "toggleCircleColor(this.id)" id="010001110" cx="282" cy="267" r="5" style="fill: rgb(0, 204, 102);"/>
  <circle onClick = "toggleCircleColor(this.id)" id="001010110" cx="292" cy="267" r="5" style="fill: rgb(0, 204, 102);"/>
  <circle onClick = "toggleCircleColor(this.id)" id="000111010" cx="302" cy="267" r="5" style="fill: rgb(0, 204, 102);"/>
  <circle onClick = "toggleCircleColor(this.id)" id="000100011" cx="197" cy="366" r="5" style="fill: rgb(0, 204, 102);"/>
  <circle onClick = "toggleCircleColor(this.id)" id="000010101" cx="207" cy="366" r="5" style="fill: rgb(0, 204, 102);"/>
  <circle onClick = "toggleCircleColor(this.id)" id="000001110" cx="217" cy="366" r="5" style="fill: rgb(0, 204, 102);"/>
  <circle onClick = "toggleCircleColor(this.id)" id="011000011" cx="237" cy="238" r="5" style="fill: rgb(0, 204, 102);"/>
  <circle onClick = "toggleCircleColor(this.id)" id="010100101" cx="247" cy="238" r="5" style="fill: rgb(0, 204, 102);"/>
  <circle onClick = "toggleCircleColor(this.id)" id="010011001" cx="257" cy="238" r="5" style="fill: rgb(0, 204, 102);"/>
  <circle onClick = "toggleCircleColor(this.id)" id="001101001" cx="267" cy="238" r="5" style="fill: rgb(0, 204, 102);"/>
  <circle onClick = "toggleCircleColor(this.id)" id="010010110" cx="277" cy="238" r="5" style="fill: rgb(0, 204, 102);"/>
  <circle onClick = "toggleCircleColor(this.id)" id="001100110" cx="287" cy="238" r="5" style="fill: rgb(0, 204, 102);"/>
  <circle onClick = "toggleCircleColor(this.id)" id="001011010" cx="297" cy="238" r="5" style="fill: rgb(0, 204, 102);"/>
  <circle onClick = "toggleCircleColor(this.id)" id="000111100" cx="307" cy="238" r="5" style="fill: rgb(0, 204, 102);"/>
  <circle onClick = "toggleCircleColor(this.id)" id="001000011" cx="192" cy="338" r="5" style="fill: rgb(0, 204, 102);"/>
  <circle onClick = "toggleCircleColor(this.id)" id="000100101" cx="202" cy="338" r="5" style="fill: rgb(0, 204, 102);"/>
  <circle onClick = "toggleCircleColor(this.id)" id="000011001" cx="212" cy="338" r="5" style="fill: rgb(0, 204, 102);"/>
  <circle onClick = "toggleCircleColor(this.id)" id="000010110" cx="222" cy="338" r="5" style="fill: rgb(0, 204, 102);"/>
  <circle onClick = "toggleCircleColor(this.id)" id="010000011" cx="187" cy="309" r="5" style="fill: rgb(0, 204, 102);"/>
  <circle onClick = "toggleCircleColor(this.id)" id="001000101" cx="197" cy="309" r="5" style="fill: rgb(0, 204, 102);"/>
  <circle onClick = "toggleCircleColor(this.id)" id="000101001" cx="207" cy="309" r="5" style="fill: rgb(0, 204, 102);"/>
  <circle onClick = "toggleCircleColor(this.id)" id="000100110" cx="217" cy="309" r="5" style="fill: rgb(0, 204, 102);"/>
  <circle onClick = "toggleCircleColor(this.id)" id="000011010" cx="227" cy="309" r="5" style="fill: rgb(0, 204, 102);"/>
  <circle onClick = "toggleCircleColor(this.id)" id="000000011" cx="141" cy="409" r="5" style="fill: rgb(0, 204, 102);"/>
  <circle onClick = "toggleCircleColor(this.id)" id="011111101" cx="468" cy="167" r="5" style="fill: rgb(0, 204, 102);"/>
  <circle onClick = "toggleCircleColor(this.id)" id="011110101" cx="398" cy="152" r="5" style="fill: rgb(0, 204, 102);"/>
  <circle onClick = "toggleCircleColor(this.id)" id="011101110" cx="408" cy="152" r="5" style="fill: rgb(0, 204, 102);"/>
  <circle onClick = "toggleCircleColor(this.id)" id="011100101" cx="317" cy="167" r="5" style="fill: rgb(0, 204, 102);"/>
  <circle onClick = "toggleCircleColor(this.id)" id="011011001" cx="327" cy="167" r="5" style="fill: rgb(0, 204, 102);"/>
  <circle onClick = "toggleCircleColor(this.id)" id="011010110" cx="337" cy="167" r="5" style="fill: rgb(0, 204, 102);"/>
  <circle onClick = "toggleCircleColor(this.id)" id="010111010" cx="347" cy="167" r="5" style="fill: rgb(0, 204, 102);"/>
  <circle onClick = "toggleCircleColor(this.id)" id="001111100" cx="357" cy="167" r="5" style="fill: rgb(0, 204, 102);"/>
  <circle onClick = "toggleCircleColor(this.id)" id="011000101" cx="242" cy="209" r="5" style="fill: rgb(0, 204, 102);"/>
  <circle onClick = "toggleCircleColor(this.id)" id="010101001" cx="252" cy="209" r="5" style="fill: rgb(0, 204, 102);"/>
  <circle onClick = "toggleCircleColor(this.id)" id="001110001" cx="262" cy="209" r="5" style="fill: rgb(0, 204, 102);"/>
  <circle onClick = "toggleCircleColor(this.id)" id="010100110" cx="272" cy="209" r="5" style="fill: rgb(0, 204, 102);"/>
  <circle onClick = "toggleCircleColor(this.id)" id="010011010" cx="282" cy="209" r="5" style="fill: rgb(0, 204, 102);"/>
  <circle onClick = "toggleCircleColor(this.id)" id="001101010" cx="292" cy="209" r="5" style="fill: rgb(0, 204, 102);"/>
  <circle onClick = "toggleCircleColor(this.id)" id="001011100" cx="302" cy="209" r="5" style="fill: rgb(0, 204, 102);"/>
  <circle onClick = "toggleCircleColor(this.id)" id="010000101" cx="182" cy="281" r="5" style="fill: rgb(0, 204, 102);"/>
  <circle onClick = "toggleCircleColor(this.id)" id="001001001" cx="192" cy="281" r="5" style="fill: rgb(0, 204, 102);"/>
  <circle onClick = "toggleCircleColor(this.id)" id="000110001" cx="202" cy="281" r="5" style="fill: rgb(0, 204, 102);"/>
  <circle onClick = "toggleCircleColor(this.id)" id="001000110" cx="212" cy="281" r="5" style="fill: rgb(0, 204, 102);"/>
  <circle onClick = "toggleCircleColor(this.id)" id="000101010" cx="222" cy="281" r="5" style="fill: rgb(0, 204, 102);"/>
  <circle onClick = "toggleCircleColor(this.id)" id="000011100" cx="232" cy="281" r="5" style="fill: rgb(0, 204, 102);"/>
  <circle onClick = "toggleCircleColor(this.id)" id="000000101" cx="141" cy="381" r="5" style="fill: rgb(0, 204, 102);"/>
  <circle onClick = "toggleCircleColor(this.id)" id="011111001" cx="398" cy="124" r="5" style="fill: rgb(0, 204, 102);"/>
  <circle onClick = "toggleCircleColor(this.id)" id="011110110" cx="408" cy="124" r="5" style="fill: rgb(0, 204, 102);"/>
  <circle onClick = "toggleCircleColor(this.id)" id="011101001" cx="322" cy="138" r="5" style="fill: rgb(0, 204, 102);"/>
  <circle onClick = "toggleCircleColor(this.id)" id="011100110" cx="332" cy="138" r="5" style="fill: rgb(0, 204, 102);"/>
  <circle onClick = "toggleCircleColor(this.id)" id="011011010" cx="342" cy="138" r="5" style="fill: rgb(0, 204, 102);"/>
  <circle onClick = "toggleCircleColor(this.id)" id="010111100" cx="352" cy="138" r="5" style="fill: rgb(0, 204, 102);"/>
  <circle onClick = "toggleCircleColor(this.id)" id="011001001" cx="242" cy="181" r="5" style="fill: rgb(0, 204, 102);"/>
  <circle onClick = "toggleCircleColor(this.id)" id="010110001" cx="252" cy="181" r="5" style="fill: rgb(0, 204, 102);"/>
  <circle onClick = "toggleCircleColor(this.id)" id="011000110" cx="262" cy="181" r="5" style="fill: rgb(0, 204, 102);"/>
  <circle onClick = "toggleCircleColor(this.id)" id="010101010" cx="272" cy="181" r="5" style="fill: rgb(0, 204, 102);"/>
  <circle onClick = "toggleCircleColor(this.id)" id="001110010" cx="282" cy="181" r="5" style="fill: rgb(0, 204, 102);"/>
  <circle onClick = "toggleCircleColor(this.id)" id="010011100" cx="292" cy="181" r="5" style="fill: rgb(0, 204, 102);"/>
  <circle onClick = "toggleCircleColor(this.id)" id="001101100" cx="302" cy="181" r="5" style="fill: rgb(0, 204, 102);"/>
  <circle onClick = "toggleCircleColor(this.id)" id="010001001" cx="182" cy="252" r="5" style="fill: rgb(0, 204, 102);"/>
  <circle onClick = "toggleCircleColor(this.id)" id="001010001" cx="192" cy="252" r="5" style="fill: rgb(0, 204, 102);"/>
  <circle onClick = "toggleCircleColor(this.id)" id="010000110" cx="202" cy="252" r="5" style="fill: rgb(0, 204, 102);"/>
  <circle onClick = "toggleCircleColor(this.id)" id="001001010" cx="212" cy="252" r="5" style="fill: rgb(0, 204, 102);"/>
  <circle onClick = "toggleCircleColor(this.id)" id="000110010" cx="222" cy="252" r="5" style="fill: rgb(0, 204, 102);"/>
  <circle onClick = "toggleCircleColor(this.id)" id="000101100" cx="232" cy="252" r="5" style="fill: rgb(0, 204, 102);"/>
  <circle onClick = "toggleCircleColor(this.id)" id="000001001" cx="136" cy="352" r="5" style="fill: rgb(0, 204, 102);"/>
  <circle onClick = "toggleCircleColor(this.id)" id="000000110" cx="146" cy="352" r="5" style="fill: rgb(0, 204, 102);"/>
  <circle onClick = "toggleCircleColor(this.id)" id="011110001" cx="327" cy="110" r="5" style="fill: rgb(0, 204, 102);"/>
  <circle onClick = "toggleCircleColor(this.id)" id="011101010" cx="337" cy="110" r="5" style="fill: rgb(0, 204, 102);"/>
  <circle onClick = "toggleCircleColor(this.id)" id="011011100" cx="347" cy="110" r="5" style="fill: rgb(0, 204, 102);"/>
  <circle onClick = "toggleCircleColor(this.id)" id="011010001" cx="252" cy="152" r="5" style="fill: rgb(0, 204, 102);"/>
  <circle onClick = "toggleCircleColor(this.id)" id="011001010" cx="262" cy="152" r="5" style="fill: rgb(0, 204, 102);"/>
  <circle onClick = "toggleCircleColor(this.id)" id="010110010" cx="272" cy="152" r="5" style="fill: rgb(0, 204, 102);"/>
  <circle onClick = "toggleCircleColor(this.id)" id="010101100" cx="282" cy="152" r="5" style="fill: rgb(0, 204, 102);"/>
  <circle onClick = "toggleCircleColor(this.id)" id="001110100" cx="292" cy="152" r="5" style="fill: rgb(0, 204, 102);"/>
  <circle onClick = "toggleCircleColor(this.id)" id="010010001" cx="182" cy="224" r="5" style="fill: rgb(0, 204, 102);"/>
  <circle onClick = "toggleCircleColor(this.id)" id="001100001" cx="192" cy="224" r="5" style="fill: rgb(0, 204, 102);"/>
  <circle onClick = "toggleCircleColor(this.id)" id="010001010" cx="202" cy="224" r="5" style="fill: rgb(0, 204, 102);"/>
  <circle onClick = "toggleCircleColor(this.id)" id="001010010" cx="212" cy="224" r="5" style="fill: rgb(0, 204, 102);"/>
  <circle onClick = "toggleCircleColor(this.id)" id="001001100" cx="222" cy="224" r="5" style="fill: rgb(0, 204, 102);"/>
  <circle onClick = "toggleCircleColor(this.id)" id="000110100" cx="232" cy="224" r="5" style="fill: rgb(0, 204, 102);"/>
  <circle onClick = "toggleCircleColor(this.id)" id="000010001" cx="136" cy="324" r="5" style="fill: rgb(0, 204, 102);"/>
  <circle onClick = "toggleCircleColor(this.id)" id="000001010" cx="146" cy="324" r="5" style="fill: rgb(0, 204, 102);"/>
  <circle onClick = "toggleCircleColor(this.id)" id="011100001" cx="252" cy="124" r="5" style="fill: rgb(0, 204, 102);"/>
  <circle onClick = "toggleCircleColor(this.id)" id="011010010" cx="262" cy="124" r="5" style="fill: rgb(0, 204, 102);"/>
  <circle onClick = "toggleCircleColor(this.id)" id="011001100" cx="272" cy="124" r="5" style="fill: rgb(0, 204, 102);"/>
  <circle onClick = "toggleCircleColor(this.id)" id="010110100" cx="282" cy="124" r="5" style="fill: rgb(0, 204, 102);"/>
  <circle onClick = "toggleCircleColor(this.id)" id="001111000" cx="292" cy="124" r="5" style="fill: rgb(0, 204, 102);"/>
  <circle onClick = "toggleCircleColor(this.id)" id="010100001" cx="182" cy="195" r="5" style="fill: rgb(0, 204, 102);"/>
  <circle onClick = "toggleCircleColor(this.id)" id="010010010" cx="192" cy="195" r="5" style="fill: rgb(0, 204, 102);"/>
  <circle onClick = "toggleCircleColor(this.id)" id="001100010" cx="202" cy="195" r="5" style="fill: rgb(0, 204, 102);"/>
  <circle onClick = "toggleCircleColor(this.id)" id="010001100" cx="212" cy="195" r="5" style="fill: rgb(0, 204, 102);"/>
  <circle onClick = "toggleCircleColor(this.id)" id="001010100" cx="222" cy="195" r="5" style="fill: rgb(0, 204, 102);"/>
  <circle onClick = "toggleCircleColor(this.id)" id="000111000" cx="232" cy="195" r="5" style="fill: rgb(0, 204, 102);"/>
  <circle onClick = "toggleCircleColor(this.id)" id="000100001" cx="131" cy="295" r="5" style="fill: rgb(0, 204, 102);"/>
  <circle onClick = "toggleCircleColor(this.id)" id="000010010" cx="141" cy="295" r="5" style="fill: rgb(0, 204, 102);"/>
  <circle onClick = "toggleCircleColor(this.id)" id="000001100" cx="151" cy="295" r="5" style="fill: rgb(0, 204, 102);"/>
  <circle onClick = "toggleCircleColor(this.id)" id="011000001" cx="187" cy="167" r="5" style="fill: rgb(0, 204, 102);"/>
  <circle onClick = "toggleCircleColor(this.id)" id="010100010" cx="197" cy="167" r="5" style="fill: rgb(0, 204, 102);"/>
  <circle onClick = "toggleCircleColor(this.id)" id="010010100" cx="207" cy="167" r="5" style="fill: rgb(0, 204, 102);"/>
  <circle onClick = "toggleCircleColor(this.id)" id="001100100" cx="217" cy="167" r="5" style="fill: rgb(0, 204, 102);"/>
  <circle onClick = "toggleCircleColor(this.id)" id="001011000" cx="227" cy="167" r="5" style="fill: rgb(0, 204, 102);"/>
  <circle onClick = "toggleCircleColor(this.id)" id="001000001" cx="131" cy="267" r="5" style="fill: rgb(0, 204, 102);"/>
  <circle onClick = "toggleCircleColor(this.id)" id="000100010" cx="141" cy="267" r="5" style="fill: rgb(0, 204, 102);"/>
  <circle onClick = "toggleCircleColor(this.id)" id="000010100" cx="151" cy="267" r="5" style="fill: rgb(0, 204, 102);"/>
  <circle onClick = "toggleCircleColor(this.id)" id="010000001" cx="126" cy="238" r="5" style="fill: rgb(0, 204, 102);"/>
  <circle onClick = "toggleCircleColor(this.id)" id="001000010" cx="136" cy="238" r="5" style="fill: rgb(0, 204, 102);"/>
  <circle onClick = "toggleCircleColor(this.id)" id="000100100" cx="146" cy="238" r="5" style="fill: rgb(0, 204, 102);"/>
  <circle onClick = "toggleCircleColor(this.id)" id="000011000" cx="156" cy="238" r="5" style="fill: rgb(0, 204, 102);"/>
  <circle onClick = "toggleCircleColor(this.id)" id="000000001" cx="76" cy="338" r="5" style="fill: rgb(0, 204, 102);"/>
  <circle onClick = "toggleCircleColor(this.id)" id="011111110" cx="468" cy="138" r="5" style="fill: rgb(0, 204, 102);"/>
  <circle onClick = "toggleCircleColor(this.id)" id="011111010" cx="403" cy="95" r="5" style="fill: rgb(0, 204, 102);"/>
  <circle onClick = "toggleCircleColor(this.id)" id="011110010" cx="332" cy="81" r="5" style="fill: rgb(0, 204, 102);"/>
  <circle onClick = "toggleCircleColor(this.id)" id="011101100" cx="342" cy="81" r="5" style="fill: rgb(0, 204, 102);"/>
  <circle onClick = "toggleCircleColor(this.id)" id="011100010" cx="262" cy="95" r="5" style="fill: rgb(0, 204, 102);"/>
  <circle onClick = "toggleCircleColor(this.id)" id="011010100" cx="272" cy="95" r="5" style="fill: rgb(0, 204, 102);"/>
  <circle onClick = "toggleCircleColor(this.id)" id="010111000" cx="282" cy="95" r="5" style="fill: rgb(0, 204, 102);"/>
  <circle onClick = "toggleCircleColor(this.id)" id="011000010" cx="192" cy="138" r="5" style="fill: rgb(0, 204, 102);"/>
  <circle onClick = "toggleCircleColor(this.id)" id="010100100" cx="202" cy="138" r="5" style="fill: rgb(0, 204, 102);"/>
  <circle onClick = "toggleCircleColor(this.id)" id="010011000" cx="212" cy="138" r="5" style="fill: rgb(0, 204, 102);"/>
  <circle onClick = "toggleCircleColor(this.id)" id="001101000" cx="222" cy="138" r="5" style="fill: rgb(0, 204, 102);"/>
  <circle onClick = "toggleCircleColor(this.id)" id="010000010" cx="131" cy="209" r="5" style="fill: rgb(0, 204, 102);"/>
  <circle onClick = "toggleCircleColor(this.id)" id="001000100" cx="141" cy="209" r="5" style="fill: rgb(0, 204, 102);"/>
  <circle onClick = "toggleCircleColor(this.id)" id="000101000" cx="151" cy="209" r="5" style="fill: rgb(0, 204, 102);"/>
  <circle onClick = "toggleCircleColor(this.id)" id="000000010" cx="76" cy="309" r="5" style="fill: rgb(0, 204, 102);"/>
  <circle onClick = "toggleCircleColor(this.id)" id="011111100" cx="403" cy="67" r="5" style="fill: rgb(0, 204, 102);"/>
  <circle onClick = "toggleCircleColor(this.id)" id="011110100" cx="337" cy="52" r="5" style="fill: rgb(0, 204, 102);"/>
  <circle onClick = "toggleCircleColor(this.id)" id="011100100" cx="267" cy="67" r="5" style="fill: rgb(0, 204, 102);"/>
  <circle onClick = "toggleCircleColor(this.id)" id="011011000" cx="277" cy="67" r="5" style="fill: rgb(0, 204, 102);"/>
  <circle onClick = "toggleCircleColor(this.id)" id="011000100" cx="197" cy="110" r="5" style="fill: rgb(0, 204, 102);"/>
  <circle onClick = "toggleCircleColor(this.id)" id="010101000" cx="207" cy="110" r="5" style="fill: rgb(0, 204, 102);"/>
  <circle onClick = "toggleCircleColor(this.id)" id="001110000" cx="217" cy="110" r="5" style="fill: rgb(0, 204, 102);"/>
  <circle onClick = "toggleCircleColor(this.id)" id="010000100" cx="131" cy="181" r="5" style="fill: rgb(0, 204, 102);"/>
  <circle onClick = "toggleCircleColor(this.id)" id="001001000" cx="141" cy="181" r="5" style="fill: rgb(0, 204, 102);"/>
  <circle onClick = "toggleCircleColor(this.id)" id="000110000" cx="151" cy="181" r="5" style="fill: rgb(0, 204, 102);"/>
  <circle onClick = "toggleCircleColor(this.id)" id="000000100" cx="76" cy="281" r="5" style="fill: rgb(0, 204, 102);"/>
  <circle onClick = "toggleCircleColor(this.id)" id="011111000" cx="337" cy="24" r="5" style="fill: rgb(0, 204, 102);"/>
  <circle onClick = "toggleCircleColor(this.id)" id="011101000" cx="272" cy="38" r="5" style="fill: rgb(0, 204, 102);"/>
  <circle onClick = "toggleCircleColor(this.id)" id="011001000" cx="202" cy="81" r="5" style="fill: rgb(0, 204, 102);"/>
  <circle onClick = "toggleCircleColor(this.id)" id="010110000" cx="212" cy="81" r="5" style="fill: rgb(0, 204, 102);"/>
  <circle onClick = "toggleCircleColor(this.id)" id="010001000" cx="136" cy="152" r="5" style="fill: rgb(0, 204, 102);"/>
  <circle onClick = "toggleCircleColor(this.id)" id="001010000" cx="146" cy="152" r="5" style="fill: rgb(0, 204, 102);"/>
  <circle onClick = "toggleCircleColor(this.id)" id="000001000" cx="76" cy="252" r="5" style="fill: rgb(0, 204, 102);"/>
  <circle onClick = "toggleCircleColor(this.id)" id="011110000" cx="272" cy="10" r="5" style="fill: rgb(0, 204, 102);"/>
  <circle onClick = "toggleCircleColor(this.id)" id="011010000" cx="207" cy="52" r="5" style="fill: rgb(0, 204, 102);"/>
  <circle onClick = "toggleCircleColor(this.id)" id="010010000" cx="136" cy="124" r="5" style="fill: rgb(0, 204, 102);"/>
  <circle onClick = "toggleCircleColor(this.id)" id="001100000" cx="146" cy="124" r="5" style="fill: rgb(0, 204, 102);"/>
  <circle onClick = "toggleCircleColor(this.id)" id="000010000" cx="76" cy="224" r="5" style="fill: rgb(0, 204, 102);"/>
  <circle onClick = "toggleCircleColor(this.id)" id="011100000" cx="207" cy="24" r="5" style="fill: rgb(0, 204, 102);"/>
  <circle onClick = "toggleCircleColor(this.id)" id="010100000" cx="141" cy="95" r="5" style="fill: rgb(0, 204, 102);"/>
  <circle onClick = "toggleCircleColor(this.id)" id="000100000" cx="76" cy="195" r="5" style="fill: rgb(0, 204, 102);"/>
  <circle onClick = "toggleCircleColor(this.id)" id="011000000" cx="141" cy="67" r="5" style="fill: rgb(0, 204, 102);"/>
  <circle onClick = "toggleCircleColor(this.id)" id="001000000" cx="76" cy="167" r="5" style="fill: rgb(0, 204, 102);"/>
  <circle onClick = "toggleCircleColor(this.id)" id="010000000" cx="76" cy="138" r="5" style="fill: rgb(0, 204, 102);"/>
  <circle onClick = "toggleCircleColor(this.id)" id="000000000" cx="10" cy="238" r="5" style="fill: rgb(0, 204, 102);"/>
 </g>
</svg>
