<?xml version="1.0" encoding="UTF-8"?>
<svg version="1.0" width="544" height="476" xmlns="http://www.w3.org/2000/svg">
 <g stroke="#000" fill="none">
  <path stroke-width="1.1" d="M272.0,381.0L207.0,395.0M207.0,24.0L141.0,95.0M403.0,124.0L337.0,24.0M403.0,95.0L337.0,167.0M468.0,309.0L403.0,267.0M337.0,24.0L272.0,67.0M534.0,238.0L468.0,224.0M403.0,409.0L337.0,366.0M534.0,238.0L468.0,195.0M403.0,409.0L337.0,424.0M272.0,67.0L207.0,110.0M141.0,124.0L76.0,195.0M403.0,95.0L337.0,195.0M403.0,124.0L337.0,110.0M141.0,324.0L76.0,252.0M337.0,24.0L272.0,124.0M468.0,138.0L403.0,152.0M468.0,195.0L403.0,295.0M272.0,67.0L207.0,81.0M403.0,409.0L337.0,338.0M468.0,224.0L403.0,267.0M534.0,238.0L468.0,167.0M141.0,181.0L76.0,195.0M468.0,167.0L403.0,238.0M468.0,224.0L403.0,324.0M207.0,395.0L141.0,324.0M272.0,438.0L207.0,395.0M141.0,238.0L76.0,224.0M76.0,309.0L10.0,238.0M207.0,366.0L141.0,409.0M141.0,267.0L76.0,167.0M207.0,424.0L141.0,324.0M468.0,252.0L403.0,209.0M337.0,395.0L272.0,438.0M468.0,338.0L403.0,324.0M337.0,395.0L272.0,409.0M337.0,452.0L272.0,352.0M207.0,138.0L141.0,95.0M403.0,381.0L337.0,395.0M468.0,195.0L403.0,124.0M468.0,138.0L403.0,124.0M468.0,138.0L403.0,67.0M207.0,167.0L141.0,95.0M403.0,409.0L337.0,452.0M403.0,381.0L337.0,338.0M141.0,209.0L76.0,138.0M76.0,224.0L10.0,238.0M337.0,110.0L272.0,67.0M403.0,324.0L337.0,395.0M403.0,409.0L337.0,395.0M141.0,181.0L76.0,224.0M272.0,466.0L207.0,452.0M272.0,67.0L207.0,24.0M207.0,452.0L141.0,381.0M468.0,224.0L403.0,295.0M468.0,281.0L403.0,267.0M272.0,10.0L207.0,24.0M272.0,409.0L207.0,424.0M207.0,366.0L141.0,381.0M403.0,67.0L337.0,81.0M337.0,110.0L272.0,10.0M468.0,309.0L403.0,352.0M468.0,338.0L403.0,295.0M207.0,81.0L141.0,152.0M468.0,252.0L403.0,295.0M403.0,324.0L337.0,309.0M337.0,52.0L272.0,95.0M403.0,95.0L337.0,24.0M468.0,195.0L403.0,238.0M141.0,238.0L76.0,195.0M272.0,38.0L207.0,138.0M468.0,167.0L403.0,267.0M141.0,238.0L76.0,309.0M534.0,238.0L468.0,281.0M403.0,67.0L337.0,24.0M141.0,209.0L76.0,281.0M272.0,10.0L207.0,81.0M272.0,38.0L207.0,24.0M403.0,381.0L337.0,452.0M468.0,224.0L403.0,124.0M207.0,167.0L141.0,67.0M337.0,52.0L272.0,152.0M468.0,167.0L403.0,152.0M468.0,252.0L403.0,238.0M468.0,138.0L403.0,238.0M272.0,67.0L207.0,52.0M207.0,81.0L141.0,67.0M141.0,95.0L76.0,195.0M141.0,324.0L76.0,224.0M468.0,138.0L403.0,181.0M534.0,238.0L468.0,138.0M468.0,281.0L403.0,209.0M207.0,395.0L141.0,352.0M141.0,267.0L76.0,224.0M272.0,409.0L207.0,452.0M468.0,309.0L403.0,209.0M337.0,366.0L272.0,466.0M141.0,352.0L76.0,252.0M468.0,252.0L403.0,352.0M337.0,424.0L272.0,466.0M207.0,81.0L141.0,124.0M207.0,110.0L141.0,124.0M403.0,409.0L337.0,309.0M207.0,338.0L141.0,381.0M468.0,281.0L403.0,238.0M403.0,124.0L337.0,81.0M337.0,110.0L272.0,38.0M141.0,238.0L76.0,281.0M468.0,309.0L403.0,324.0M141.0,295.0L76.0,309.0M207.0,309.0L141.0,409.0M272.0,438.0L207.0,452.0M337.0,424.0L272.0,409.0M403.0,124.0L337.0,52.0M403.0,352.0L337.0,452.0M272.0,352.0L207.0,452.0M468.0,252.0L403.0,324.0M337.0,452.0L272.0,381.0M207.0,52.0L141.0,152.0M207.0,110.0L141.0,95.0M141.0,152.0L76.0,252.0M141.0,152.0L76.0,224.0M207.0,167.0L141.0,152.0M141.0,295.0L76.0,195.0M337.0,366.0L272.0,409.0M272.0,409.0L207.0,366.0M534.0,238.0L468.0,338.0M272.0,409.0L207.0,395.0M468.0,338.0L403.0,409.0M141.0,352.0L76.0,338.0M207.0,395.0L141.0,409.0M272.0,152.0L207.0,52.0M141.0,181.0L76.0,138.0M337.0,395.0L272.0,381.0M141.0,238.0L76.0,252.0M141.0,267.0L76.0,195.0M207.0,110.0L141.0,67.0M272.0,466.0L207.0,366.0M141.0,181.0L76.0,281.0M272.0,95.0L207.0,52.0M403.0,152.0L337.0,52.0M337.0,24.0L272.0,95.0M468.0,167.0L403.0,124.0M207.0,395.0L141.0,381.0M403.0,381.0L337.0,366.0M403.0,67.0L337.0,52.0M337.0,81.0L272.0,10.0M207.0,338.0L141.0,324.0M207.0,338.0L141.0,409.0M141.0,209.0L76.0,195.0M403.0,67.0L337.0,167.0M337.0,81.0L272.0,38.0M337.0,24.0L272.0,38.0M141.0,295.0L76.0,224.0M403.0,152.0L337.0,138.0M207.0,52.0L141.0,124.0M272.0,466.0L207.0,395.0M272.0,38.0L207.0,81.0M403.0,95.0L337.0,110.0M207.0,309.0L141.0,324.0M207.0,366.0L141.0,352.0M468.0,195.0L403.0,181.0M468.0,167.0L403.0,181.0M468.0,195.0L403.0,95.0M272.0,38.0L207.0,110.0M76.0,138.0L10.0,238.0M76.0,167.0L10.0,238.0M141.0,67.0L76.0,138.0M141.0,67.0L76.0,167.0M272.0,95.0L207.0,24.0M76.0,195.0L10.0,238.0M141.0,95.0L76.0,138.0M207.0,24.0L141.0,124.0M141.0,409.0L76.0,309.0M141.0,124.0L76.0,224.0M141.0,152.0L76.0,167.0M207.0,52.0L141.0,67.0M207.0,81.0L141.0,95.0M272.0,10.0L207.0,52.0M272.0,10.0L207.0,110.0M141.0,352.0L76.0,281.0M76.0,252.0L10.0,238.0M141.0,152.0L76.0,138.0M141.0,181.0L76.0,167.0M337.0,52.0L272.0,10.0M468.0,252.0L403.0,152.0M468.0,167.0L403.0,67.0M403.0,352.0L337.0,395.0M272.0,124.0L207.0,24.0M207.0,309.0L141.0,381.0M337.0,138.0L272.0,38.0M403.0,67.0L337.0,110.0M337.0,395.0L272.0,466.0M468.0,338.0L403.0,381.0M403.0,95.0L337.0,81.0M468.0,224.0L403.0,238.0M403.0,352.0L337.0,424.0M337.0,366.0L272.0,438.0M468.0,281.0L403.0,381.0M403.0,381.0L337.0,281.0M141.0,381.0L76.0,338.0M141.0,324.0L76.0,309.0M76.0,281.0L10.0,238.0M141.0,181.0L76.0,252.0M272.0,466.0L207.0,424.0M403.0,152.0L337.0,167.0M403.0,152.0L337.0,81.0M468.0,138.0L403.0,209.0M468.0,338.0L403.0,267.0M468.0,281.0L403.0,295.0M141.0,267.0L76.0,338.0M468.0,167.0L403.0,209.0M337.0,424.0L272.0,352.0M403.0,324.0L337.0,338.0M337.0,424.0L272.0,381.0M141.0,124.0L76.0,138.0M141.0,381.0L76.0,281.0M141.0,324.0L76.0,338.0M207.0,452.0L141.0,409.0M141.0,209.0L76.0,252.0M207.0,138.0L141.0,67.0M403.0,352.0L337.0,366.0M207.0,424.0L141.0,409.0M207.0,452.0L141.0,352.0M207.0,138.0L141.0,152.0M141.0,295.0L76.0,338.0M403.0,381.0L337.0,309.0M337.0,424.0L272.0,324.0M468.0,338.0L403.0,238.0M337.0,338.0L272.0,438.0M534.0,238.0L468.0,309.0M141.0,209.0L76.0,167.0M403.0,324.0L337.0,424.0M141.0,409.0L76.0,338.0M468.0,195.0L403.0,209.0M272.0,438.0L207.0,338.0M468.0,281.0L403.0,352.0M468.0,309.0L403.0,295.0M207.0,24.0L141.0,67.0M207.0,281.0L141.0,381.0M141.0,124.0L76.0,167.0M534.0,238.0L468.0,252.0M337.0,452.0L272.0,466.0M272.0,381.0L207.0,452.0M468.0,138.0L403.0,95.0M468.0,224.0L403.0,181.0M468.0,309.0L403.0,409.0M337.0,24.0L272.0,10.0M337.0,52.0L272.0,124.0M468.0,195.0L403.0,267.0M468.0,281.0L403.0,181.0M207.0,195.0L141.0,95.0M272.0,324.0L207.0,424.0M141.0,238.0L76.0,338.0M76.0,338.0L10.0,238.0M468.0,338.0L403.0,352.0M272.0,381.0L207.0,424.0M337.0,452.0L272.0,438.0M337.0,452.0L272.0,409.0M272.0,438.0L207.0,366.0M403.0,95.0L337.0,138.0M468.0,309.0L403.0,238.0M272.0,352.0L207.0,424.0M468.0,224.0L403.0,152.0M337.0,81.0L272.0,95.0M141.0,238.0L76.0,138.0M468.0,252.0L403.0,181.0M207.0,424.0L141.0,352.0M141.0,267.0L76.0,309.0M141.0,238.0L76.0,167.0M141.0,209.0L76.0,309.0M403.0,67.0L337.0,138.0M337.0,81.0L272.0,67.0M272.0,124.0L207.0,52.0M141.0,267.0L76.0,281.0M141.0,295.0L76.0,281.0M141.0,295.0L76.0,252.0M337.0,52.0L272.0,67.0M272.0,95.0L207.0,81.0M141.0,352.0L76.0,309.0"/>
  <path stroke-width="1.15" d="M272.0,381.0L207.0,309.0M403.0,209.0L337.0,138.0M207.0,252.0L141.0,209.0M403.0,181.0L337.0,167.0M403.0,209.0L337.0,224.0M403.0,267.0L337.0,252.0M403.0,267.0L337.0,195.0M403.0,181.0L337.0,138.0M272.0,67.0L207.0,167.0M207.0,224.0L141.0,324.0M207.0,138.0L141.0,181.0M403.0,152.0L337.0,252.0M403.0,324.0L337.0,281.0M337.0,81.0L272.0,152.0M337.0,138.0L272.0,152.0M403.0,324.0L337.0,224.0M337.0,81.0L272.0,124.0M207.0,224.0L141.0,152.0M403.0,181.0L337.0,81.0M207.0,167.0L141.0,209.0M403.0,295.0L337.0,309.0M337.0,167.0L272.0,95.0M403.0,352.0L337.0,338.0M403.0,124.0L337.0,224.0M272.0,152.0L207.0,81.0M272.0,381.0L207.0,338.0M337.0,366.0L272.0,324.0M207.0,252.0L141.0,295.0M403.0,295.0L337.0,338.0M272.0,295.0L207.0,395.0M403.0,209.0L337.0,167.0M272.0,124.0L207.0,110.0M207.0,252.0L141.0,152.0M403.0,267.0L337.0,366.0M207.0,138.0L141.0,209.0M337.0,167.0L272.0,67.0M337.0,395.0L272.0,352.0M272.0,95.0L207.0,110.0M207.0,366.0L141.0,267.0M207.0,110.0L141.0,152.0M272.0,181.0L207.0,81.0M403.0,152.0L337.0,195.0M403.0,181.0L337.0,195.0M207.0,110.0L141.0,181.0M207.0,195.0L141.0,267.0M207.0,338.0L141.0,295.0M337.0,309.0L272.0,381.0M207.0,224.0L141.0,181.0M403.0,295.0L337.0,395.0M403.0,209.0L337.0,281.0M403.0,152.0L337.0,110.0M207.0,338.0L141.0,267.0M207.0,281.0L141.0,209.0M403.0,181.0L337.0,224.0M403.0,152.0L337.0,224.0M207.0,366.0L141.0,295.0M337.0,110.0L272.0,152.0M337.0,338.0L272.0,381.0M403.0,324.0L337.0,252.0M272.0,409.0L207.0,309.0M207.0,281.0L141.0,295.0M337.0,366.0L272.0,352.0M207.0,195.0L141.0,124.0M272.0,95.0L207.0,167.0M403.0,324.0L337.0,366.0M403.0,181.0L337.0,110.0M403.0,124.0L337.0,195.0M272.0,152.0L207.0,138.0M207.0,366.0L141.0,324.0M207.0,195.0L141.0,181.0M272.0,152.0L207.0,110.0M403.0,209.0L337.0,110.0M272.0,352.0L207.0,395.0M337.0,395.0L272.0,295.0M403.0,209.0L337.0,252.0M272.0,324.0L207.0,338.0M207.0,81.0L141.0,181.0M272.0,95.0L207.0,138.0M403.0,267.0L337.0,309.0M337.0,309.0L272.0,409.0M403.0,295.0L337.0,252.0M403.0,267.0L337.0,224.0M337.0,110.0L272.0,95.0M207.0,110.0L141.0,209.0M272.0,352.0L207.0,366.0M272.0,124.0L207.0,81.0M337.0,338.0L272.0,409.0M337.0,138.0L272.0,67.0M207.0,309.0L141.0,267.0M207.0,252.0L141.0,324.0M272.0,381.0L207.0,366.0M272.0,409.0L207.0,338.0M403.0,267.0L337.0,338.0M207.0,338.0L141.0,352.0M337.0,338.0L272.0,324.0M207.0,281.0L141.0,324.0M207.0,309.0L141.0,295.0M337.0,395.0L272.0,324.0M272.0,324.0L207.0,366.0M337.0,110.0L272.0,124.0M207.0,309.0L141.0,352.0M403.0,352.0L337.0,281.0M403.0,124.0L337.0,167.0M272.0,67.0L207.0,138.0M207.0,281.0L141.0,352.0M403.0,295.0L337.0,366.0M207.0,167.0L141.0,181.0M207.0,167.0L141.0,124.0M272.0,324.0L207.0,395.0M337.0,81.0L272.0,181.0M403.0,352.0L337.0,309.0M207.0,252.0L141.0,352.0M207.0,138.0L141.0,124.0M403.0,352.0L337.0,252.0M337.0,366.0L272.0,381.0M207.0,252.0L141.0,267.0M207.0,224.0L141.0,124.0M207.0,224.0L141.0,209.0M403.0,124.0L337.0,138.0M337.0,138.0L272.0,95.0M403.0,295.0L337.0,281.0M207.0,224.0L141.0,267.0M207.0,395.0L141.0,295.0M207.0,195.0L141.0,152.0"/>
  <path stroke-width="1.2" d="M403.0,238.0L337.0,224.0M337.0,252.0L272.0,324.0M403.0,238.0L337.0,281.0M207.0,195.0L141.0,295.0M403.0,238.0L337.0,338.0M207.0,309.0L141.0,238.0M337.0,138.0L272.0,124.0M403.0,238.0L337.0,138.0M272.0,352.0L207.0,338.0M403.0,238.0L337.0,195.0M403.0,238.0L337.0,167.0M207.0,195.0L141.0,238.0M337.0,281.0L272.0,381.0M207.0,252.0L141.0,238.0M272.0,124.0L207.0,138.0M403.0,295.0L337.0,224.0M272.0,181.0L207.0,195.0M337.0,138.0L272.0,209.0M272.0,267.0L207.0,309.0M403.0,209.0L337.0,195.0M337.0,224.0L272.0,152.0M272.0,381.0L207.0,281.0M272.0,95.0L207.0,195.0M272.0,181.0L207.0,138.0M337.0,110.0L272.0,181.0M337.0,338.0L272.0,267.0M337.0,309.0L272.0,267.0M207.0,252.0L141.0,181.0M272.0,295.0L207.0,281.0M272.0,324.0L207.0,281.0M207.0,281.0L141.0,181.0M337.0,309.0L272.0,352.0M337.0,138.0L272.0,181.0M207.0,309.0L141.0,209.0M207.0,281.0L141.0,238.0M403.0,238.0L337.0,309.0M207.0,138.0L141.0,238.0M272.0,295.0L207.0,338.0M403.0,295.0L337.0,195.0M272.0,324.0L207.0,309.0M272.0,209.0L207.0,224.0M207.0,338.0L141.0,238.0M207.0,167.0L141.0,238.0M337.0,224.0L272.0,209.0M337.0,366.0L272.0,295.0M272.0,267.0L207.0,366.0M403.0,181.0L337.0,281.0M403.0,209.0L337.0,309.0M207.0,195.0L141.0,209.0M272.0,267.0L207.0,252.0M337.0,309.0L272.0,324.0M272.0,324.0L207.0,252.0M337.0,167.0L272.0,209.0M403.0,267.0L337.0,167.0M207.0,281.0L141.0,267.0M272.0,152.0L207.0,195.0M337.0,252.0L272.0,267.0M272.0,152.0L207.0,167.0M337.0,281.0L272.0,295.0M337.0,338.0L272.0,352.0M403.0,238.0L337.0,252.0M272.0,295.0L207.0,366.0M272.0,209.0L207.0,138.0M337.0,195.0L272.0,152.0M337.0,338.0L272.0,295.0M337.0,110.0L272.0,209.0M207.0,167.0L141.0,267.0M337.0,195.0L272.0,181.0M337.0,167.0L272.0,152.0M403.0,181.0L337.0,252.0M207.0,224.0L141.0,295.0M272.0,267.0L207.0,338.0M272.0,352.0L207.0,309.0M403.0,267.0L337.0,281.0M272.0,152.0L207.0,224.0M272.0,181.0L207.0,110.0M337.0,167.0L272.0,124.0M207.0,224.0L141.0,238.0M272.0,209.0L207.0,167.0M337.0,281.0L272.0,324.0M337.0,195.0L272.0,95.0M272.0,209.0L207.0,110.0M272.0,124.0L207.0,167.0M337.0,366.0L272.0,267.0"/>
  <path stroke-width="1.25" d="M272.0,238.0L207.0,281.0M337.0,281.0L272.0,267.0M337.0,224.0L272.0,181.0M337.0,224.0L272.0,324.0M272.0,209.0L207.0,309.0M272.0,209.0L207.0,281.0M337.0,167.0L272.0,181.0M272.0,295.0L207.0,224.0M337.0,309.0L272.0,209.0M272.0,267.0L207.0,167.0M337.0,281.0L272.0,209.0M337.0,309.0L272.0,238.0M272.0,181.0L207.0,252.0M337.0,224.0L272.0,295.0M337.0,252.0L272.0,295.0M272.0,238.0L207.0,195.0M337.0,281.0L272.0,352.0M272.0,124.0L207.0,224.0M272.0,352.0L207.0,281.0M272.0,181.0L207.0,224.0M337.0,195.0L272.0,209.0M337.0,224.0L272.0,267.0M337.0,224.0L272.0,238.0M272.0,352.0L207.0,252.0M272.0,238.0L207.0,224.0M337.0,195.0L272.0,267.0M272.0,238.0L207.0,138.0M272.0,295.0L207.0,252.0M337.0,252.0L272.0,238.0M272.0,267.0L207.0,224.0M337.0,224.0L272.0,124.0M272.0,267.0L207.0,195.0M337.0,252.0L272.0,209.0M337.0,309.0L272.0,295.0M272.0,324.0L207.0,224.0M272.0,124.0L207.0,195.0M337.0,252.0L272.0,152.0M337.0,252.0L272.0,181.0M337.0,252.0L272.0,352.0M337.0,338.0L272.0,238.0M272.0,238.0L207.0,338.0M272.0,209.0L207.0,195.0M337.0,281.0L272.0,238.0M337.0,195.0L272.0,124.0M272.0,295.0L207.0,309.0M272.0,152.0L207.0,252.0M272.0,267.0L207.0,281.0M337.0,195.0L272.0,238.0M272.0,238.0L207.0,309.0M337.0,167.0L272.0,238.0M337.0,138.0L272.0,238.0M272.0,238.0L207.0,252.0M272.0,181.0L207.0,167.0M272.0,209.0L207.0,252.0M337.0,167.0L272.0,267.0M272.0,238.0L207.0,167.0"/>
  <path stroke-width="1.3" d="M272.0,295.0L207.0,195.0M272.0,181.0L207.0,281.0M337.0,281.0L272.0,181.0M337.0,195.0L272.0,295.0"/>
  <circle onClick = "toggleCircleColor(this.id)" id="111111110" cx="534" cy="238" r="5" style="fill: rgb(0, 204, 102);"/>
  <circle onClick = "toggleCircleColor(this.id)" id="011111110" cx="468" cy="338" r="5" style="fill: rgb(0, 204, 102);"/>
  <circle onClick = "toggleCircleColor(this.id)" id="101111110" cx="468" cy="309" r="5" style="fill: rgb(0, 204, 102);"/>
  <circle onClick = "toggleCircleColor(this.id)" id="001111110" cx="403" cy="409" r="5" style="fill: rgb(0, 204, 102);"/>
  <circle onClick = "toggleCircleColor(this.id)" id="110111110" cx="468" cy="281" r="5" style="fill: rgb(0, 204, 102);"/>
  <circle onClick = "toggleCircleColor(this.id)" id="010111110" cx="403" cy="381" r="5" style="fill: rgb(0, 204, 102);"/>
  <circle onClick = "toggleCircleColor(this.id)" id="100111110" cx="398" cy="352" r="5" style="fill: rgb(0, 204, 102);"/>
  <circle onClick = "toggleCircleColor(this.id)" id="011011110" cx="408" cy="352" r="5" style="fill: rgb(0, 204, 102);"/>
  <circle onClick = "toggleCircleColor(this.id)" id="000111110" cx="337" cy="452" r="5" style="fill: rgb(0, 204, 102);"/>
  <circle onClick = "toggleCircleColor(this.id)" id="111011110" cx="468" cy="252" r="5" style="fill: rgb(0, 204, 102);"/>
  <circle onClick = "toggleCircleColor(this.id)" id="101011110" cx="398" cy="324" r="5" style="fill: rgb(0, 204, 102);"/>
  <circle onClick = "toggleCircleColor(this.id)" id="011101110" cx="408" cy="324" r="5" style="fill: rgb(0, 204, 102);"/>
  <circle onClick = "toggleCircleColor(this.id)" id="001011110" cx="337" cy="424" r="5" style="fill: rgb(0, 204, 102);"/>
  <circle onClick = "toggleCircleColor(this.id)" id="110011110" cx="393" cy="295" r="5" style="fill: rgb(0, 204, 102);"/>
  <circle onClick = "toggleCircleColor(this.id)" id="101101110" cx="403" cy="295" r="5" style="fill: rgb(0, 204, 102);"/>
  <circle onClick = "toggleCircleColor(this.id)" id="011110110" cx="413" cy="295" r="5" style="fill: rgb(0, 204, 102);"/>
  <circle onClick = "toggleCircleColor(this.id)" id="010011110" cx="332" cy="395" r="5" style="fill: rgb(0, 204, 102);"/>
  <circle onClick = "toggleCircleColor(this.id)" id="001101110" cx="342" cy="395" r="5" style="fill: rgb(0, 204, 102);"/>
  <circle onClick = "toggleCircleColor(this.id)" id="100011110" cx="327" cy="366" r="5" style="fill: rgb(0, 204, 102);"/>
  <circle onClick = "toggleCircleColor(this.id)" id="010101110" cx="337" cy="366" r="5" style="fill: rgb(0, 204, 102);"/>
  <circle onClick = "toggleCircleColor(this.id)" id="001110110" cx="347" cy="366" r="5" style="fill: rgb(0, 204, 102);"/>
  <circle onClick = "toggleCircleColor(this.id)" id="000011110" cx="272" cy="466" r="5" style="fill: rgb(0, 204, 102);"/>
  <circle onClick = "toggleCircleColor(this.id)" id="111101110" cx="468" cy="224" r="5" style="fill: rgb(0, 204, 102);"/>
  <circle onClick = "toggleCircleColor(this.id)" id="110101110" cx="393" cy="267" r="5" style="fill: rgb(0, 204, 102);"/>
  <circle onClick = "toggleCircleColor(this.id)" id="101110110" cx="403" cy="267" r="5" style="fill: rgb(0, 204, 102);"/>
  <circle onClick = "toggleCircleColor(this.id)" id="011111010" cx="413" cy="267" r="5" style="fill: rgb(0, 204, 102);"/>
  <circle onClick = "toggleCircleColor(this.id)" id="100101110" cx="322" cy="338" r="5" style="fill: rgb(0, 204, 102);"/>
  <circle onClick = "toggleCircleColor(this.id)" id="011001110" cx="332" cy="338" r="5" style="fill: rgb(0, 204, 102);"/>
  <circle onClick = "toggleCircleColor(this.id)" id="010110110" cx="342" cy="338" r="5" style="fill: rgb(0, 204, 102);"/>
  <circle onClick = "toggleCircleColor(this.id)" id="001111010" cx="352" cy="338" r="5" style="fill: rgb(0, 204, 102);"/>
  <circle onClick = "toggleCircleColor(this.id)" id="000101110" cx="272" cy="438" r="5" style="fill: rgb(0, 204, 102);"/>
  <circle onClick = "toggleCircleColor(this.id)" id="111001110" cx="388" cy="238" r="5" style="fill: rgb(0, 204, 102);"/>
  <circle onClick = "toggleCircleColor(this.id)" id="110110110" cx="398" cy="238" r="5" style="fill: rgb(0, 204, 102);"/>
  <circle onClick = "toggleCircleColor(this.id)" id="101111010" cx="408" cy="238" r="5" style="fill: rgb(0, 204, 102);"/>
  <circle onClick = "toggleCircleColor(this.id)" id="011111100" cx="418" cy="238" r="5" style="fill: rgb(0, 204, 102);"/>
  <circle onClick = "toggleCircleColor(this.id)" id="101001110" cx="317" cy="309" r="5" style="fill: rgb(0, 204, 102);"/>
  <circle onClick = "toggleCircleColor(this.id)" id="100110110" cx="327" cy="309" r="5" style="fill: rgb(0, 204, 102);"/>
  <circle onClick = "toggleCircleColor(this.id)" id="011010110" cx="337" cy="309" r="5" style="fill: rgb(0, 204, 102);"/>
  <circle onClick = "toggleCircleColor(this.id)" id="010111010" cx="347" cy="309" r="5" style="fill: rgb(0, 204, 102);"/>
  <circle onClick = "toggleCircleColor(this.id)" id="001111100" cx="357" cy="309" r="5" style="fill: rgb(0, 204, 102);"/>
  <circle onClick = "toggleCircleColor(this.id)" id="001001110" cx="267" cy="409" r="5" style="fill: rgb(0, 204, 102);"/>
  <circle onClick = "toggleCircleColor(this.id)" id="000110110" cx="277" cy="409" r="5" style="fill: rgb(0, 204, 102);"/>
  <circle onClick = "toggleCircleColor(this.id)" id="110001110" cx="312" cy="281" r="5" style="fill: rgb(0, 204, 102);"/>
  <circle onClick = "toggleCircleColor(this.id)" id="101010110" cx="322" cy="281" r="5" style="fill: rgb(0, 204, 102);"/>
  <circle onClick = "toggleCircleColor(this.id)" id="011100110" cx="332" cy="281" r="5" style="fill: rgb(0, 204, 102);"/>
  <circle onClick = "toggleCircleColor(this.id)" id="100111010" cx="342" cy="281" r="5" style="fill: rgb(0, 204, 102);"/>
  <circle onClick = "toggleCircleColor(this.id)" id="011011010" cx="352" cy="281" r="5" style="fill: rgb(0, 204, 102);"/>
  <circle onClick = "toggleCircleColor(this.id)" id="010111100" cx="362" cy="281" r="5" style="fill: rgb(0, 204, 102);"/>
  <circle onClick = "toggleCircleColor(this.id)" id="010001110" cx="262" cy="381" r="5" style="fill: rgb(0, 204, 102);"/>
  <circle onClick = "toggleCircleColor(this.id)" id="001010110" cx="272" cy="381" r="5" style="fill: rgb(0, 204, 102);"/>
  <circle onClick = "toggleCircleColor(this.id)" id="000111010" cx="282" cy="381" r="5" style="fill: rgb(0, 204, 102);"/>
  <circle onClick = "toggleCircleColor(this.id)" id="100001110" cx="252" cy="352" r="5" style="fill: rgb(0, 204, 102);"/>
  <circle onClick = "toggleCircleColor(this.id)" id="010010110" cx="262" cy="352" r="5" style="fill: rgb(0, 204, 102);"/>
  <circle onClick = "toggleCircleColor(this.id)" id="001100110" cx="272" cy="352" r="5" style="fill: rgb(0, 204, 102);"/>
  <circle onClick = "toggleCircleColor(this.id)" id="001011010" cx="282" cy="352" r="5" style="fill: rgb(0, 204, 102);"/>
  <circle onClick = "toggleCircleColor(this.id)" id="000111100" cx="292" cy="352" r="5" style="fill: rgb(0, 204, 102);"/>
  <circle onClick = "toggleCircleColor(this.id)" id="000001110" cx="207" cy="452" r="5" style="fill: rgb(0, 204, 102);"/>
  <circle onClick = "toggleCircleColor(this.id)" id="111110110" cx="468" cy="195" r="5" style="fill: rgb(0, 204, 102);"/>
  <circle onClick = "toggleCircleColor(this.id)" id="111010110" cx="393" cy="209" r="5" style="fill: rgb(0, 204, 102);"/>
  <circle onClick = "toggleCircleColor(this.id)" id="110111010" cx="403" cy="209" r="5" style="fill: rgb(0, 204, 102);"/>
  <circle onClick = "toggleCircleColor(this.id)" id="101111100" cx="413" cy="209" r="5" style="fill: rgb(0, 204, 102);"/>
  <circle onClick = "toggleCircleColor(this.id)" id="110010110" cx="312" cy="252" r="5" style="fill: rgb(0, 204, 102);"/>
  <circle onClick = "toggleCircleColor(this.id)" id="101100110" cx="322" cy="252" r="5" style="fill: rgb(0, 204, 102);"/>
  <circle onClick = "toggleCircleColor(this.id)" id="101011010" cx="332" cy="252" r="5" style="fill: rgb(0, 204, 102);"/>
  <circle onClick = "toggleCircleColor(this.id)" id="011101010" cx="342" cy="252" r="5" style="fill: rgb(0, 204, 102);"/>
  <circle onClick = "toggleCircleColor(this.id)" id="100111100" cx="352" cy="252" r="5" style="fill: rgb(0, 204, 102);"/>
  <circle onClick = "toggleCircleColor(this.id)" id="011011100" cx="362" cy="252" r="5" style="fill: rgb(0, 204, 102);"/>
  <circle onClick = "toggleCircleColor(this.id)" id="100010110" cx="252" cy="324" r="5" style="fill: rgb(0, 204, 102);"/>
  <circle onClick = "toggleCircleColor(this.id)" id="010100110" cx="262" cy="324" r="5" style="fill: rgb(0, 204, 102);"/>
  <circle onClick = "toggleCircleColor(this.id)" id="010011010" cx="272" cy="324" r="5" style="fill: rgb(0, 204, 102);"/>
  <circle onClick = "toggleCircleColor(this.id)" id="001101010" cx="282" cy="324" r="5" style="fill: rgb(0, 204, 102);"/>
  <circle onClick = "toggleCircleColor(this.id)" id="001011100" cx="292" cy="324" r="5" style="fill: rgb(0, 204, 102);"/>
  <circle onClick = "toggleCircleColor(this.id)" id="000010110" cx="207" cy="424" r="5" style="fill: rgb(0, 204, 102);"/>
  <circle onClick = "toggleCircleColor(this.id)" id="111100110" cx="393" cy="181" r="5" style="fill: rgb(0, 204, 102);"/>
  <circle onClick = "toggleCircleColor(this.id)" id="111011010" cx="403" cy="181" r="5" style="fill: rgb(0, 204, 102);"/>
  <circle onClick = "toggleCircleColor(this.id)" id="110111100" cx="413" cy="181" r="5" style="fill: rgb(0, 204, 102);"/>
  <circle onClick = "toggleCircleColor(this.id)" id="110100110" cx="312" cy="224" r="5" style="fill: rgb(0, 204, 102);"/>
  <circle onClick = "toggleCircleColor(this.id)" id="110011010" cx="322" cy="224" r="5" style="fill: rgb(0, 204, 102);"/>
  <circle onClick = "toggleCircleColor(this.id)" id="101101010" cx="332" cy="224" r="5" style="fill: rgb(0, 204, 102);"/>
  <circle onClick = "toggleCircleColor(this.id)" id="011110010" cx="342" cy="224" r="5" style="fill: rgb(0, 204, 102);"/>
  <circle onClick = "toggleCircleColor(this.id)" id="101011100" cx="352" cy="224" r="5" style="fill: rgb(0, 204, 102);"/>
  <circle onClick = "toggleCircleColor(this.id)" id="011101100" cx="362" cy="224" r="5" style="fill: rgb(0, 204, 102);"/>
  <circle onClick = "toggleCircleColor(this.id)" id="100100110" cx="242" cy="295" r="5" style="fill: rgb(0, 204, 102);"/>
  <circle onClick = "toggleCircleColor(this.id)" id="011000110" cx="252" cy="295" r="5" style="fill: rgb(0, 204, 102);"/>
  <circle onClick = "toggleCircleColor(this.id)" id="100011010" cx="262" cy="295" r="5" style="fill: rgb(0, 204, 102);"/>
  <circle onClick = "toggleCircleColor(this.id)" id="010101010" cx="272" cy="295" r="5" style="fill: rgb(0, 204, 102);"/>
  <circle onClick = "toggleCircleColor(this.id)" id="001110010" cx="282" cy="295" r="5" style="fill: rgb(0, 204, 102);"/>
  <circle onClick = "toggleCircleColor(this.id)" id="010011100" cx="292" cy="295" r="5" style="fill: rgb(0, 204, 102);"/>
  <circle onClick = "toggleCircleColor(this.id)" id="001101100" cx="302" cy="295" r="5" style="fill: rgb(0, 204, 102);"/>
  <circle onClick = "toggleCircleColor(this.id)" id="000100110" cx="202" cy="395" r="5" style="fill: rgb(0, 204, 102);"/>
  <circle onClick = "toggleCircleColor(this.id)" id="000011010" cx="212" cy="395" r="5" style="fill: rgb(0, 204, 102);"/>
  <circle onClick = "toggleCircleColor(this.id)" id="111000110" cx="312" cy="195" r="5" style="fill: rgb(0, 204, 102);"/>
  <circle onClick = "toggleCircleColor(this.id)" id="110101010" cx="322" cy="195" r="5" style="fill: rgb(0, 204, 102);"/>
  <circle onClick = "toggleCircleColor(this.id)" id="101110010" cx="332" cy="195" r="5" style="fill: rgb(0, 204, 102);"/>
  <circle onClick = "toggleCircleColor(this.id)" id="110011100" cx="342" cy="195" r="5" style="fill: rgb(0, 204, 102);"/>
  <circle onClick = "toggleCircleColor(this.id)" id="101101100" cx="352" cy="195" r="5" style="fill: rgb(0, 204, 102);"/>
  <circle onClick = "toggleCircleColor(this.id)" id="011110100" cx="362" cy="195" r="5" style="fill: rgb(0, 204, 102);"/>
  <circle onClick = "toggleCircleColor(this.id)" id="101000110" cx="242" cy="267" r="5" style="fill: rgb(0, 204, 102);"/>
  <circle onClick = "toggleCircleColor(this.id)" id="100101010" cx="252" cy="267" r="5" style="fill: rgb(0, 204, 102);"/>
  <circle onClick = "toggleCircleColor(this.id)" id="011001010" cx="262" cy="267" r="5" style="fill: rgb(0, 204, 102);"/>
  <circle onClick = "toggleCircleColor(this.id)" id="010110010" cx="272" cy="267" r="5" style="fill: rgb(0, 204, 102);"/>
  <circle onClick = "toggleCircleColor(this.id)" id="100011100" cx="282" cy="267" r="5" style="fill: rgb(0, 204, 102);"/>
  <circle onClick = "toggleCircleColor(this.id)" id="010101100" cx="292" cy="267" r="5" style="fill: rgb(0, 204, 102);"/>
  <circle onClick = "toggleCircleColor(this.id)" id="001110100" cx="302" cy="267" r="5" style="fill: rgb(0, 204, 102);"/>
  <circle onClick = "toggleCircleColor(this.id)" id="001000110" cx="197" cy="366" r="5" style="fill: rgb(0, 204, 102);"/>
  <circle onClick = "toggleCircleColor(this.id)" id="000101010" cx="207" cy="366" r="5" style="fill: rgb(0, 204, 102);"/>
  <circle onClick = "toggleCircleColor(this.id)" id="000011100" cx="217" cy="366" r="5" style="fill: rgb(0, 204, 102);"/>
  <circle onClick = "toggleCircleColor(this.id)" id="110000110" cx="237" cy="238" r="5" style="fill: rgb(0, 204, 102);"/>
  <circle onClick = "toggleCircleColor(this.id)" id="101001010" cx="247" cy="238" r="5" style="fill: rgb(0, 204, 102);"/>
  <circle onClick = "toggleCircleColor(this.id)" id="100110010" cx="257" cy="238" r="5" style="fill: rgb(0, 204, 102);"/>
  <circle onClick = "toggleCircleColor(this.id)" id="011010010" cx="267" cy="238" r="5" style="fill: rgb(0, 204, 102);"/>
  <circle onClick = "toggleCircleColor(this.id)" id="100101100" cx="277" cy="238" r="5" style="fill: rgb(0, 204, 102);"/>
  <circle onClick = "toggleCircleColor(this.id)" id="011001100" cx="287" cy="238" r="5" style="fill: rgb(0, 204, 102);"/>
  <circle onClick = "toggleCircleColor(this.id)" id="010110100" cx="297" cy="238" r="5" style="fill: rgb(0, 204, 102);"/>
  <circle onClick = "toggleCircleColor(this.id)" id="001111000" cx="307" cy="238" r="5" style="fill: rgb(0, 204, 102);"/>
  <circle onClick = "toggleCircleColor(this.id)" id="010000110" cx="192" cy="338" r="5" style="fill: rgb(0, 204, 102);"/>
  <circle onClick = "toggleCircleColor(this.id)" id="001001010" cx="202" cy="338" r="5" style="fill: rgb(0, 204, 102);"/>
  <circle onClick = "toggleCircleColor(this.id)" id="000110010" cx="212" cy="338" r="5" style="fill: rgb(0, 204, 102);"/>
  <circle onClick = "toggleCircleColor(this.id)" id="000101100" cx="222" cy="338" r="5" style="fill: rgb(0, 204, 102);"/>
  <circle onClick = "toggleCircleColor(this.id)" id="100000110" cx="187" cy="309" r="5" style="fill: rgb(0, 204, 102);"/>
  <circle onClick = "toggleCircleColor(this.id)" id="010001010" cx="197" cy="309" r="5" style="fill: rgb(0, 204, 102);"/>
  <circle onClick = "toggleCircleColor(this.id)" id="001010010" cx="207" cy="309" r="5" style="fill: rgb(0, 204, 102);"/>
  <circle onClick = "toggleCircleColor(this.id)" id="001001100" cx="217" cy="309" r="5" style="fill: rgb(0, 204, 102);"/>
  <circle onClick = "toggleCircleColor(this.id)" id="000110100" cx="227" cy="309" r="5" style="fill: rgb(0, 204, 102);"/>
  <circle onClick = "toggleCircleColor(this.id)" id="000000110" cx="141" cy="409" r="5" style="fill: rgb(0, 204, 102);"/>
  <circle onClick = "toggleCircleColor(this.id)" id="111111010" cx="468" cy="167" r="5" style="fill: rgb(0, 204, 102);"/>
  <circle onClick = "toggleCircleColor(this.id)" id="111101010" cx="398" cy="152" r="5" style="fill: rgb(0, 204, 102);"/>
  <circle onClick = "toggleCircleColor(this.id)" id="111011100" cx="408" cy="152" r="5" style="fill: rgb(0, 204, 102);"/>
  <circle onClick = "toggleCircleColor(this.id)" id="111001010" cx="317" cy="167" r="5" style="fill: rgb(0, 204, 102);"/>
  <circle onClick = "toggleCircleColor(this.id)" id="110110010" cx="327" cy="167" r="5" style="fill: rgb(0, 204, 102);"/>
  <circle onClick = "toggleCircleColor(this.id)" id="110101100" cx="337" cy="167" r="5" style="fill: rgb(0, 204, 102);"/>
  <circle onClick = "toggleCircleColor(this.id)" id="101110100" cx="347" cy="167" r="5" style="fill: rgb(0, 204, 102);"/>
  <circle onClick = "toggleCircleColor(this.id)" id="011111000" cx="357" cy="167" r="5" style="fill: rgb(0, 204, 102);"/>
  <circle onClick = "toggleCircleColor(this.id)" id="110001010" cx="242" cy="209" r="5" style="fill: rgb(0, 204, 102);"/>
  <circle onClick = "toggleCircleColor(this.id)" id="101010010" cx="252" cy="209" r="5" style="fill: rgb(0, 204, 102);"/>
  <circle onClick = "toggleCircleColor(this.id)" id="011100010" cx="262" cy="209" r="5" style="fill: rgb(0, 204, 102);"/>
  <circle onClick = "toggleCircleColor(this.id)" id="101001100" cx="272" cy="209" r="5" style="fill: rgb(0, 204, 102);"/>
  <circle onClick = "toggleCircleColor(this.id)" id="100110100" cx="282" cy="209" r="5" style="fill: rgb(0, 204, 102);"/>
  <circle onClick = "toggleCircleColor(this.id)" id="011010100" cx="292" cy="209" r="5" style="fill: rgb(0, 204, 102);"/>
  <circle onClick = "toggleCircleColor(this.id)" id="010111000" cx="302" cy="209" r="5" style="fill: rgb(0, 204, 102);"/>
  <circle onClick = "toggleCircleColor(this.id)" id="100001010" cx="182" cy="281" r="5" style="fill: rgb(0, 204, 102);"/>
  <circle onClick = "toggleCircleColor(this.id)" id="010010010" cx="192" cy="281" r="5" style="fill: rgb(0, 204, 102);"/>
  <circle onClick = "toggleCircleColor(this.id)" id="001100010" cx="202" cy="281" r="5" style="fill: rgb(0, 204, 102);"/>
  <circle onClick = "toggleCircleColor(this.id)" id="010001100" cx="212" cy="281" r="5" style="fill: rgb(0, 204, 102);"/>
  <circle onClick = "toggleCircleColor(this.id)" id="001010100" cx="222" cy="281" r="5" style="fill: rgb(0, 204, 102);"/>
  <circle onClick = "toggleCircleColor(this.id)" id="000111000" cx="232" cy="281" r="5" style="fill: rgb(0, 204, 102);"/>
  <circle onClick = "toggleCircleColor(this.id)" id="000001010" cx="141" cy="381" r="5" style="fill: rgb(0, 204, 102);"/>
  <circle onClick = "toggleCircleColor(this.id)" id="111110010" cx="398" cy="124" r="5" style="fill: rgb(0, 204, 102);"/>
  <circle onClick = "toggleCircleColor(this.id)" id="111101100" cx="408" cy="124" r="5" style="fill: rgb(0, 204, 102);"/>
  <circle onClick = "toggleCircleColor(this.id)" id="111010010" cx="322" cy="138" r="5" style="fill: rgb(0, 204, 102);"/>
  <circle onClick = "toggleCircleColor(this.id)" id="111001100" cx="332" cy="138" r="5" style="fill: rgb(0, 204, 102);"/>
  <circle onClick = "toggleCircleColor(this.id)" id="110110100" cx="342" cy="138" r="5" style="fill: rgb(0, 204, 102);"/>
  <circle onClick = "toggleCircleColor(this.id)" id="101111000" cx="352" cy="138" r="5" style="fill: rgb(0, 204, 102);"/>
  <circle onClick = "toggleCircleColor(this.id)" id="110010010" cx="242" cy="181" r="5" style="fill: rgb(0, 204, 102);"/>
  <circle onClick = "toggleCircleColor(this.id)" id="101100010" cx="252" cy="181" r="5" style="fill: rgb(0, 204, 102);"/>
  <circle onClick = "toggleCircleColor(this.id)" id="110001100" cx="262" cy="181" r="5" style="fill: rgb(0, 204, 102);"/>
  <circle onClick = "toggleCircleColor(this.id)" id="101010100" cx="272" cy="181" r="5" style="fill: rgb(0, 204, 102);"/>
  <circle onClick = "toggleCircleColor(this.id)" id="011100100" cx="282" cy="181" r="5" style="fill: rgb(0, 204, 102);"/>
  <circle onClick = "toggleCircleColor(this.id)" id="100111000" cx="292" cy="181" r="5" style="fill: rgb(0, 204, 102);"/>
  <circle onClick = "toggleCircleColor(this.id)" id="011011000" cx="302" cy="181" r="5" style="fill: rgb(0, 204, 102);"/>
  <circle onClick = "toggleCircleColor(this.id)" id="100010010" cx="182" cy="252" r="5" style="fill: rgb(0, 204, 102);"/>
  <circle onClick = "toggleCircleColor(this.id)" id="010100010" cx="192" cy="252" r="5" style="fill: rgb(0, 204, 102);"/>
  <circle onClick = "toggleCircleColor(this.id)" id="100001100" cx="202" cy="252" r="5" style="fill: rgb(0, 204, 102);"/>
  <circle onClick = "toggleCircleColor(this.id)" id="010010100" cx="212" cy="252" r="5" style="fill: rgb(0, 204, 102);"/>
  <circle onClick = "toggleCircleColor(this.id)" id="001100100" cx="222" cy="252" r="5" style="fill: rgb(0, 204, 102);"/>
  <circle onClick = "toggleCircleColor(this.id)" id="001011000" cx="232" cy="252" r="5" style="fill: rgb(0, 204, 102);"/>
  <circle onClick = "toggleCircleColor(this.id)" id="000010010" cx="136" cy="352" r="5" style="fill: rgb(0, 204, 102);"/>
  <circle onClick = "toggleCircleColor(this.id)" id="000001100" cx="146" cy="352" r="5" style="fill: rgb(0, 204, 102);"/>
  <circle onClick = "toggleCircleColor(this.id)" id="111100010" cx="327" cy="110" r="5" style="fill: rgb(0, 204, 102);"/>
  <circle onClick = "toggleCircleColor(this.id)" id="111010100" cx="337" cy="110" r="5" style="fill: rgb(0, 204, 102);"/>
  <circle onClick = "toggleCircleColor(this.id)" id="110111000" cx="347" cy="110" r="5" style="fill: rgb(0, 204, 102);"/>
  <circle onClick = "toggleCircleColor(this.id)" id="110100010" cx="252" cy="152" r="5" style="fill: rgb(0, 204, 102);"/>
  <circle onClick = "toggleCircleColor(this.id)" id="110010100" cx="262" cy="152" r="5" style="fill: rgb(0, 204, 102);"/>
  <circle onClick = "toggleCircleColor(this.id)" id="101100100" cx="272" cy="152" r="5" style="fill: rgb(0, 204, 102);"/>
  <circle onClick = "toggleCircleColor(this.id)" id="101011000" cx="282" cy="152" r="5" style="fill: rgb(0, 204, 102);"/>
  <circle onClick = "toggleCircleColor(this.id)" id="011101000" cx="292" cy="152" r="5" style="fill: rgb(0, 204, 102);"/>
  <circle onClick = "toggleCircleColor(this.id)" id="100100010" cx="182" cy="224" r="5" style="fill: rgb(0, 204, 102);"/>
  <circle onClick = "toggleCircleColor(this.id)" id="011000010" cx="192" cy="224" r="5" style="fill: rgb(0, 204, 102);"/>
  <circle onClick = "toggleCircleColor(this.id)" id="100010100" cx="202" cy="224" r="5" style="fill: rgb(0, 204, 102);"/>
  <circle onClick = "toggleCircleColor(this.id)" id="010100100" cx="212" cy="224" r="5" style="fill: rgb(0, 204, 102);"/>
  <circle onClick = "toggleCircleColor(this.id)" id="010011000" cx="222" cy="224" r="5" style="fill: rgb(0, 204, 102);"/>
  <circle onClick = "toggleCircleColor(this.id)" id="001101000" cx="232" cy="224" r="5" style="fill: rgb(0, 204, 102);"/>
  <circle onClick = "toggleCircleColor(this.id)" id="000100010" cx="136" cy="324" r="5" style="fill: rgb(0, 204, 102);"/>
  <circle onClick = "toggleCircleColor(this.id)" id="000010100" cx="146" cy="324" r="5" style="fill: rgb(0, 204, 102);"/>
  <circle onClick = "toggleCircleColor(this.id)" id="111000010" cx="252" cy="124" r="5" style="fill: rgb(0, 204, 102);"/>
  <circle onClick = "toggleCircleColor(this.id)" id="110100100" cx="262" cy="124" r="5" style="fill: rgb(0, 204, 102);"/>
  <circle onClick = "toggleCircleColor(this.id)" id="110011000" cx="272" cy="124" r="5" style="fill: rgb(0, 204, 102);"/>
  <circle onClick = "toggleCircleColor(this.id)" id="101101000" cx="282" cy="124" r="5" style="fill: rgb(0, 204, 102);"/>
  <circle onClick = "toggleCircleColor(this.id)" id="011110000" cx="292" cy="124" r="5" style="fill: rgb(0, 204, 102);"/>
  <circle onClick = "toggleCircleColor(this.id)" id="101000010" cx="182" cy="195" r="5" style="fill: rgb(0, 204, 102);"/>
  <circle onClick = "toggleCircleColor(this.id)" id="100100100" cx="192" cy="195" r="5" style="fill: rgb(0, 204, 102);"/>
  <circle onClick = "toggleCircleColor(this.id)" id="011000100" cx="202" cy="195" r="5" style="fill: rgb(0, 204, 102);"/>
  <circle onClick = "toggleCircleColor(this.id)" id="100011000" cx="212" cy="195" r="5" style="fill: rgb(0, 204, 102);"/>
  <circle onClick = "toggleCircleColor(this.id)" id="010101000" cx="222" cy="195" r="5" style="fill: rgb(0, 204, 102);"/>
  <circle onClick = "toggleCircleColor(this.id)" id="001110000" cx="232" cy="195" r="5" style="fill: rgb(0, 204, 102);"/>
  <circle onClick = "toggleCircleColor(this.id)" id="001000010" cx="131" cy="295" r="5" style="fill: rgb(0, 204, 102);"/>
  <circle onClick = "toggleCircleColor(this.id)" id="000100100" cx="141" cy="295" r="5" style="fill: rgb(0, 204, 102);"/>
  <circle onClick = "toggleCircleColor(this.id)" id="000011000" cx="151" cy="295" r="5" style="fill: rgb(0, 204, 102);"/>
  <circle onClick = "toggleCircleColor(this.id)" id="110000010" cx="187" cy="167" r="5" style="fill: rgb(0, 204, 102);"/>
  <circle onClick = "toggleCircleColor(this.id)" id="101000100" cx="197" cy="167" r="5" style="fill: rgb(0, 204, 102);"/>
  <circle onClick = "toggleCircleColor(this.id)" id="100101000" cx="207" cy="167" r="5" style="fill: rgb(0, 204, 102);"/>
  <circle onClick = "toggleCircleColor(this.id)" id="011001000" cx="217" cy="167" r="5" style="fill: rgb(0, 204, 102);"/>
  <circle onClick = "toggleCircleColor(this.id)" id="010110000" cx="227" cy="167" r="5" style="fill: rgb(0, 204, 102);"/>
  <circle onClick = "toggleCircleColor(this.id)" id="010000010" cx="131" cy="267" r="5" style="fill: rgb(0, 204, 102);"/>
  <circle onClick = "toggleCircleColor(this.id)" id="001000100" cx="141" cy="267" r="5" style="fill: rgb(0, 204, 102);"/>
  <circle onClick = "toggleCircleColor(this.id)" id="000101000" cx="151" cy="267" r="5" style="fill: rgb(0, 204, 102);"/>
  <circle onClick = "toggleCircleColor(this.id)" id="100000010" cx="126" cy="238" r="5" style="fill: rgb(0, 204, 102);"/>
  <circle onClick = "toggleCircleColor(this.id)" id="010000100" cx="136" cy="238" r="5" style="fill: rgb(0, 204, 102);"/>
  <circle onClick = "toggleCircleColor(this.id)" id="001001000" cx="146" cy="238" r="5" style="fill: rgb(0, 204, 102);"/>
  <circle onClick = "toggleCircleColor(this.id)" id="000110000" cx="156" cy="238" r="5" style="fill: rgb(0, 204, 102);"/>
  <circle onClick = "toggleCircleColor(this.id)" id="000000010" cx="76" cy="338" r="5" style="fill: rgb(0, 204, 102);"/>
  <circle onClick = "toggleCircleColor(this.id)" id="111111100" cx="468" cy="138" r="5" style="fill: rgb(0, 204, 102);"/>
  <circle onClick = "toggleCircleColor(this.id)" id="111110100" cx="403" cy="95" r="5" style="fill: rgb(0, 204, 102);"/>
  <circle onClick = "toggleCircleColor(this.id)" id="111100100" cx="332" cy="81" r="5" style="fill: rgb(0, 204, 102);"/>
  <circle onClick = "toggleCircleColor(this.id)" id="111011000" cx="342" cy="81" r="5" style="fill: rgb(0, 204, 102);"/>
  <circle onClick = "toggleCircleColor(this.id)" id="111000100" cx="262" cy="95" r="5" style="fill: rgb(0, 204, 102);"/>
  <circle onClick = "toggleCircleColor(this.id)" id="110101000" cx="272" cy="95" r="5" style="fill: rgb(0, 204, 102);"/>
  <circle onClick = "toggleCircleColor(this.id)" id="101110000" cx="282" cy="95" r="5" style="fill: rgb(0, 204, 102);"/>
  <circle onClick = "toggleCircleColor(this.id)" id="110000100" cx="192" cy="138" r="5" style="fill: rgb(0, 204, 102);"/>
  <circle onClick = "toggleCircleColor(this.id)" id="101001000" cx="202" cy="138" r="5" style="fill: rgb(0, 204, 102);"/>
  <circle onClick = "toggleCircleColor(this.id)" id="100110000" cx="212" cy="138" r="5" style="fill: rgb(0, 204, 102);"/>
  <circle onClick = "toggleCircleColor(this.id)" id="011010000" cx="222" cy="138" r="5" style="fill: rgb(0, 204, 102);"/>
  <circle onClick = "toggleCircleColor(this.id)" id="100000100" cx="131" cy="209" r="5" style="fill: rgb(0, 204, 102);"/>
  <circle onClick = "toggleCircleColor(this.id)" id="010001000" cx="141" cy="209" r="5" style="fill: rgb(0, 204, 102);"/>
  <circle onClick = "toggleCircleColor(this.id)" id="001010000" cx="151" cy="209" r="5" style="fill: rgb(0, 204, 102);"/>
  <circle onClick = "toggleCircleColor(this.id)" id="000000100" cx="76" cy="309" r="5" style="fill: rgb(0, 204, 102);"/>
  <circle onClick = "toggleCircleColor(this.id)" id="111111000" cx="403" cy="67" r="5" style="fill: rgb(0, 204, 102);"/>
  <circle onClick = "toggleCircleColor(this.id)" id="111101000" cx="337" cy="52" r="5" style="fill: rgb(0, 204, 102);"/>
  <circle onClick = "toggleCircleColor(this.id)" id="111001000" cx="267" cy="67" r="5" style="fill: rgb(0, 204, 102);"/>
  <circle onClick = "toggleCircleColor(this.id)" id="110110000" cx="277" cy="67" r="5" style="fill: rgb(0, 204, 102);"/>
  <circle onClick = "toggleCircleColor(this.id)" id="110001000" cx="197" cy="110" r="5" style="fill: rgb(0, 204, 102);"/>
  <circle onClick = "toggleCircleColor(this.id)" id="101010000" cx="207" cy="110" r="5" style="fill: rgb(0, 204, 102);"/>
  <circle onClick = "toggleCircleColor(this.id)" id="011100000" cx="217" cy="110" r="5" style="fill: rgb(0, 204, 102);"/>
  <circle onClick = "toggleCircleColor(this.id)" id="100001000" cx="131" cy="181" r="5" style="fill: rgb(0, 204, 102);"/>
  <circle onClick = "toggleCircleColor(this.id)" id="010010000" cx="141" cy="181" r="5" style="fill: rgb(0, 204, 102);"/>
  <circle onClick = "toggleCircleColor(this.id)" id="001100000" cx="151" cy="181" r="5" style="fill: rgb(0, 204, 102);"/>
  <circle onClick = "toggleCircleColor(this.id)" id="000001000" cx="76" cy="281" r="5" style="fill: rgb(0, 204, 102);"/>
  <circle onClick = "toggleCircleColor(this.id)" id="111110000" cx="337" cy="24" r="5" style="fill: rgb(0, 204, 102);"/>
  <circle onClick = "toggleCircleColor(this.id)" id="111010000" cx="272" cy="38" r="5" style="fill: rgb(0, 204, 102);"/>
  <circle onClick = "toggleCircleColor(this.id)" id="110010000" cx="202" cy="81" r="5" style="fill: rgb(0, 204, 102);"/>
  <circle onClick = "toggleCircleColor(this.id)" id="101100000" cx="212" cy="81" r="5" style="fill: rgb(0, 204, 102);"/>
  <circle onClick = "toggleCircleColor(this.id)" id="100010000" cx="136" cy="152" r="5" style="fill: rgb(0, 204, 102);"/>
  <circle onClick = "toggleCircleColor(this.id)" id="010100000" cx="146" cy="152" r="5" style="fill: rgb(0, 204, 102);"/>
  <circle onClick = "toggleCircleColor(this.id)" id="000010000" cx="76" cy="252" r="5" style="fill: rgb(0, 204, 102);"/>
  <circle onClick = "toggleCircleColor(this.id)" id="111100000" cx="272" cy="10" r="5" style="fill: rgb(0, 204, 102);"/>
  <circle onClick = "toggleCircleColor(this.id)" id="110100000" cx="207" cy="52" r="5" style="fill: rgb(0, 204, 102);"/>
  <circle onClick = "toggleCircleColor(this.id)" id="100100000" cx="136" cy="124" r="5" style="fill: rgb(0, 204, 102);"/>
  <circle onClick = "toggleCircleColor(this.id)" id="011000000" cx="146" cy="124" r="5" style="fill: rgb(0, 204, 102);"/>
  <circle onClick = "toggleCircleColor(this.id)" id="000100000" cx="76" cy="224" r="5" style="fill: rgb(0, 204, 102);"/>
  <circle onClick = "toggleCircleColor(this.id)" id="111000000" cx="207" cy="24" r="5" style="fill: rgb(0, 204, 102);"/>
  <circle onClick = "toggleCircleColor(this.id)" id="101000000" cx="141" cy="95" r="5" style="fill: rgb(0, 204, 102);"/>
  <circle onClick = "toggleCircleColor(this.id)" id="001000000" cx="76" cy="195" r="5" style="fill: rgb(0, 204, 102);"/>
  <circle onClick = "toggleCircleColor(this.id)" id="110000000" cx="141" cy="67" r="5" style="fill: rgb(0, 204, 102);"/>
  <circle onClick = "toggleCircleColor(this.id)" id="010000000" cx="76" cy="167" r="5" style="fill: rgb(0, 204, 102);"/>
  <circle onClick = "toggleCircleColor(this.id)" id="100000000" cx="76" cy="138" r="5" style="fill: rgb(0, 204, 102);"/>
  <circle onClick = "toggleCircleColor(this.id)" id="000000000" cx="10" cy="238" r="5" style="fill: rgb(0, 204, 102);"/>
 </g>
</svg>
